<svg xmlns="http://www.w3.org/2000/svg" width="31" height="31" viewBox="0 0 31 31" fill="none">
  <g clip-path="url(#clip0_650_520)">
    <rect x="4" y="3" width="24" height="25" fill="#F6C700"/>
    <path d="M25.1875 0H5.8125C2.60352 0 0 2.60352 0 5.8125V25.1875C0 28.3965 2.60352 31 5.8125 31H25.1875C28.3965 31 31 28.3965 31 25.1875V5.8125C31 2.60352 28.3965 0 25.1875 0ZM9.58504 26.3146H4.76923L4.74129 11.8951H9.55709L9.58504 26.3146ZM7.05604 10.0089H7.02809C5.45388 10.0089 4.43855 8.92368 4.43855 7.57302C4.43855 6.18975 5.48648 5.14183 7.08864 5.14183C8.69081 5.14183 9.67353 6.18975 9.70613 7.57302C9.70613 8.92368 8.68615 10.0089 7.05604 10.0089ZM26.282 26.3146H21.4243V18.4808C21.4243 16.5852 20.9213 15.2951 19.226 15.2951C17.9312 15.2951 17.2326 16.166 16.8972 17.009C16.7715 17.3117 16.7389 17.7263 16.7389 18.1501V26.3146H11.8579L11.8299 11.8951H16.7109L16.7389 13.9304C17.363 12.9663 18.4016 11.6017 20.8887 11.6017C23.9719 11.6017 26.2773 13.6137 26.2773 17.9405V26.3146H26.282Z" fill="black"/>
  </g>
  <defs>
    <clipPath id="clip0_650_520">
      <rect width="31" height="31" fill="white"/>
    </clipPath>
  </defs>
</svg>