<svg width="45" height="45" viewBox="0 0 45 45" fill="none" xmlns="http://www.w3.org/2000/svg">
<g clip-path="url(#clip0_650_1439)">
<rect x="4" y="3" width="38" height="39" fill="white"/>
<path d="M36.5625 0H8.4375C3.7793 0 0 3.7793 0 8.4375V36.5625C0 41.2207 3.7793 45 8.4375 45H36.5625C41.2207 45 45 41.2207 45 36.5625V8.4375C45 3.7793 41.2207 0 36.5625 0ZM13.9138 38.1986H6.92308L6.88251 17.2671H13.8732L13.9138 38.1986ZM10.2426 14.529H10.2021C7.91692 14.529 6.44306 12.9537 6.44306 10.9931C6.44306 8.98513 7.96424 7.46394 10.29 7.46394C12.6157 7.46394 14.0422 8.98513 14.0895 10.9931C14.0895 12.9537 12.6089 14.529 10.2426 14.529ZM38.1513 38.1986H31.0998V26.8269C31.0998 24.0753 30.3696 22.2025 27.9087 22.2025C26.0291 22.2025 25.015 23.4668 24.5282 24.6905C24.3457 25.13 24.2984 25.7317 24.2984 26.3469V38.1986H17.213L17.1725 17.2671H24.2578L24.2984 20.2216C25.2043 18.8221 26.712 16.8412 30.3223 16.8412C34.7979 16.8412 38.1445 19.7619 38.1445 26.0427V38.1986H38.1513Z" fill="black"/>
</g>
<defs>
<clipPath id="clip0_650_1439">
<rect width="45" height="45" fill="white"/>
</clipPath>
</defs>
</svg>
