<svg width="1440" height="257" viewBox="0 0 1440 257" fill="none" xmlns="http://www.w3.org/2000/svg">
<g clip-path="url(#clip0_650_541)">
<path d="M215.214 149.629C214.133 150.264 213.51 151.077 212.841 152.07C212.212 153.003 211.053 153.542 210.821 154.84C210.724 155.389 210.34 155.895 210.053 156.402C208.197 159.68 205.098 161.964 203.062 165.098C201.351 165.929 200.519 167.545 199.726 169.093C197.96 172.534 195.48 175.24 192.13 177.18C191.645 177.461 191.282 177.961 190.889 178.385C190.252 179.074 189.647 179.792 189.011 180.483C187.578 182.039 186.084 183.542 184.728 185.161C184.326 185.639 184.301 186.43 184.103 187.078C182.339 188.613 180.596 190.172 178.805 191.675C176.185 193.872 173.507 196 170.899 198.211C169.012 199.811 167.235 201.541 165.341 203.134C162.361 205.639 159.373 208.142 156.288 210.515C154.992 211.511 153.326 212.03 152.036 213.032C150.755 214.026 149.789 215.413 148.59 216.526C145.106 219.758 140.884 221.923 136.877 224.385C134.976 225.552 132.818 226.311 130.958 227.531C129.468 228.508 128.011 229.472 126.329 230.076C123.664 231.033 121.008 232.021 118.334 232.956C115.66 233.891 112.989 234.849 110.278 235.671C104.4 237.452 98.5045 239.213 92.2889 239.316C90.2904 239.349 88.2424 239.405 86.2978 239.033C82.665 238.339 79.6521 236.685 78.3991 232.817C78.0415 231.714 77.2849 230.743 76.7515 229.691C75.0929 226.422 73.4032 223.108 73.1291 219.411C72.8069 215.063 72.7973 210.681 73.8812 206.397C74.3112 204.698 74.948 203.048 75.35 201.344C76.4309 196.761 77.5258 192.179 78.4486 187.563C79.5812 181.898 81.0751 176.339 82.7818 170.823C84.1028 166.554 85.5036 162.288 86.4411 157.929C87.952 150.901 88.798 143.795 88.6036 136.547C88.4729 131.65 87.6905 126.937 86.2276 122.318C85.6631 120.537 84.8564 118.79 83.8922 117.187C82.436 114.767 80.7352 112.494 79.1586 110.145C77.692 107.96 75.8036 106.177 73.729 104.605C71.4505 102.879 68.9163 101.45 66.0438 101.236C60.2515 100.804 54.4613 101.136 48.8094 102.548C44.2339 103.69 39.6938 104.999 35.1944 106.413C31.9311 107.438 28.6086 108.462 25.5854 110.016C21.6061 112.061 17.7465 114.339 13.6202 116.103C12.973 116.38 12.28 116.649 11.7524 117.093C8.72846 119.635 5.04988 121.035 1.68087 122.972C0.373161 123.724 -0.859928 124.699 -1.90388 125.785C-3.14805 127.079 -4.45354 128.182 -6.06934 128.999C-10.0966 131.033 -13.7501 133.606 -16.9906 136.769C-18.0811 137.834 -19.3237 138.773 -20.6034 139.607C-23.3806 141.416 -25.9487 143.468 -28.3654 145.728C-29.2232 146.531 -30.1401 147.307 -31.1412 147.913C-33.7979 149.52 -35.9553 151.686 -38.1378 153.838C-39.6413 155.32 -41.0672 156.904 -42.7118 158.213C-45.6708 160.567 -48.4672 163.043 -50.5566 166.228C-50.5137 167.335 -51.1619 167.952 -52.5011 168.077C-52.9769 168.523 -53.4513 168.97 -53.9263 169.416C-54.1147 170.132 -54.5972 170.463 -55.322 170.477C-56.5691 170.729 -57.4793 171.495 -58.2883 172.415C-58.2883 173.416 -58.8712 173.748 -59.78 173.705C-60.838 174.847 -61.8952 175.989 -62.9525 177.131C-62.968 177.821 -62.9842 178.51 -62.999 179.153C-62.4612 180.041 -61.0212 178.388 -60.8033 180.007C-59.8997 179.875 -59.5428 179.131 -59.0973 178.487C-59.1682 177.645 -58.7264 177.217 -57.9433 177.066C-56.2684 175.962 -54.6223 174.811 -52.9105 173.767C-51.2851 172.776 -49.8082 171.67 -48.5692 170.188C-45.8466 166.931 -42.7347 164.06 -39.4366 161.384C-38.5293 160.647 -37.6841 159.819 -36.8958 158.956C-34.6616 156.509 -32.1105 154.451 -29.3806 152.586C-27.9229 151.59 -26.5287 150.5 -25.1368 149.412C-22.6337 147.456 -20.1527 145.471 -17.6651 143.495C-16.2865 142.4 -14.8953 141.319 -13.541 140.194C-11.2765 138.311 -9.03422 136.41 -6.42175 134.994C-5.07267 134.263 -3.79968 133.393 -2.47277 132.619C-1.34681 131.963 -0.372307 131.169 0.568211 130.242C2.22907 128.604 3.96456 127.041 6.22534 126.115C8.05466 125.365 9.84113 124.381 11.4237 123.203C12.9582 122.06 14.5304 121.08 16.2925 120.364C19.5728 119.031 22.9249 117.82 25.7811 115.659C27.4147 114.423 29.2455 113.636 31.162 113.05C36.4556 111.431 41.7625 109.852 47.082 108.321C49.1182 107.735 51.1803 107.117 53.2726 106.873C56.3136 106.519 59.3952 106.515 62.4554 106.314C66.8425 106.026 70.2329 107.951 73.0279 111.087C75.7829 114.178 77.8117 117.79 80.0193 121.262C80.699 122.332 81.0876 123.625 81.4209 124.866C82.6133 129.311 83.2081 133.81 83.2472 138.45C83.3181 146.905 81.9195 155.107 79.559 163.155C78.1058 168.111 76.4013 172.994 75.197 178.024C74.7042 180.083 74.0607 182.115 73.7024 184.197C72.7841 189.527 71.5761 194.786 70.2181 200.02C69.1587 204.102 67.8783 208.159 67.8775 212.442C67.8775 214.326 68.0164 216.215 67.9411 218.095C67.831 220.858 68.3253 223.5 69.4394 225.995C71.1217 229.763 72.8661 233.506 74.6969 237.204C76.1745 240.188 78.6215 242.063 81.7873 243.189C86.0023 244.689 90.3354 245.092 94.7004 244.619C97.9652 244.265 101.197 243.479 104.397 242.696C106.684 242.136 108.917 241.326 111.132 240.513C115.457 238.925 119.783 237.335 124.047 235.598C127.215 234.306 130.264 232.728 133.408 231.375C136.78 229.923 140.006 228.236 143.007 226.116C146.261 223.817 149.445 221.404 152.82 219.292C159.479 215.125 165.043 209.717 170.612 204.281C173.04 201.91 175.444 199.499 178.211 197.489C181.358 195.203 184.533 192.936 187.182 190.054C189.471 187.562 191.595 184.942 193.084 181.873C195.386 180.96 196.503 178.733 198.273 177.245C200.566 175.316 202.264 172.898 203.839 170.462C205.713 167.563 207.767 164.908 210.424 162.709C212.077 161.339 213.328 159.606 214.177 157.682C214.706 156.484 215.573 155.46 215.981 154.308C216.444 153 216.919 152.013 218.263 151.545C218.428 151.487 218.546 151.176 218.61 150.96C219.007 149.626 219.003 148.304 218.576 146.628C217.284 147.818 216.381 148.949 215.215 149.634L215.214 149.629Z" fill="white"/>
<path d="M244.193 166.181C244.173 166.129 244.154 166.102 244.136 166.091C244.145 166.127 244.153 166.169 244.164 166.217C244.174 166.204 244.183 166.188 244.193 166.181Z" fill="white"/>
<path d="M189.362 141.17C189.393 141.285 189.43 141.411 189.477 141.556C189.433 141.43 189.401 141.298 189.362 141.17Z" fill="white"/>
<path d="M280.336 139.751C282.229 137.426 283.641 134.791 283.93 132.373C284.441 132.365 285.453 131.1 286.192 129.692C286.935 128.29 287.377 126.786 287.291 126.705C287.448 125.442 287.543 124.176 287.577 122.911C287.686 118.912 287.203 114.881 286.184 110.886C285.162 106.891 283.547 102.919 281.321 99.1922C280.113 97.1109 277.401 93.5033 274.051 90.4603C270.716 87.4032 266.775 85.0213 264.524 83.8937C263.887 83.5325 263.208 83.2643 262.536 82.954C263.637 83.4979 263.655 83.4596 264.719 84.0661C264.011 83.7735 263.289 83.5569 262.589 83.3365C261.892 83.1095 261.206 82.9039 260.53 82.7388C259.181 82.3924 256.822 82.2745 256.822 82.2745C255.577 82.3143 251.078 81.2066 250.184 80.9914C250.184 80.9914 248.75 80.8093 247.715 80.7541C246.686 80.7025 245.514 80.802 244.393 81.2508C243.251 81.7033 242.375 82.4543 241.719 83.1265C241.051 83.8126 240.561 84.4449 240.075 84.9527C239.808 85.2497 238.519 86.5815 238.519 86.5815C238.519 86.5815 233.761 91.0499 232.503 92.616C227.283 97.4382 221.465 102.355 215.882 107.254L216.084 107.218C214.143 108.951 212.638 110.75 210.027 112.542C208.446 114.189 206.01 116.289 205.63 117.263C204.626 118.087 203.958 118.71 203.305 119.337C201.765 119.585 200.229 119.995 198.731 120.589C197.641 121.005 196.126 121.778 194.547 122.983C192.974 124.184 191.366 125.904 190.262 127.995C189.14 130.087 188.594 132.42 188.499 134.485C188.398 136.555 188.69 138.305 188.924 139.512C189.058 140.067 191.279 144.282 192.634 146.271C192.531 145.837 196.533 150.503 196.533 150.503C198.433 152.93 208.887 162.909 210.556 163.779C215.803 167.793 221.964 171.293 228.329 173.714L228.217 173.558C230.482 174.368 232.601 174.721 235.441 175.341C236.498 175.331 237.766 175.245 238.822 174.979C239.88 174.711 240.711 174.288 240.985 173.906C242.027 173.526 242.673 173.08 243.235 172.595C243.787 172.097 244.296 171.568 244.824 170.742C244.564 170.859 244.802 170.444 244.932 170.064C244.965 169.97 244.997 169.88 245.025 169.802C245.055 169.709 245.078 169.626 245.084 169.575C245.096 169.472 245.041 169.483 244.862 169.709C244.403 170.124 244.222 170.348 244.029 170.561C243.845 170.771 243.667 170.98 243.189 171.186L243.269 171.235C242.318 171.918 241.158 172.373 239.949 172.593C238.729 172.827 237.526 172.808 236.242 172.596C233.696 172.186 231.127 171.037 228.476 169.692C226.634 168.941 224.795 167.979 222.977 166.946C221.172 165.889 219.385 164.764 217.654 163.637C215.784 162.43 213.866 161.125 212.058 159.798C210.257 158.461 208.542 157.133 207.059 155.91C206.327 155.351 206.014 154.72 205.536 154.098C204.237 152.91 202.826 151.489 201.454 149.959C200.059 148.443 198.766 146.866 197.617 145.319C197.655 145.38 197.693 145.439 197.717 145.478C196.526 143.816 196.007 142.371 195.201 140.656C195.134 140.694 195.006 140.426 194.925 140.306C195.04 140.09 193.738 137.573 193.542 134.865C193.427 133.522 193.623 132.158 193.924 131.14C194.004 130.887 194.078 130.651 194.144 130.437C194.24 130.234 194.327 130.053 194.4 129.898C194.554 129.588 194.653 129.377 194.731 129.33C194.826 129.165 194.925 128.995 195.025 128.822C196.169 127.251 197.905 126.129 199.666 125.387C201.437 124.632 203.256 124.24 204.901 123.962C205.256 123.838 205.629 123.708 205.991 123.582C206.361 123.484 206.72 123.38 207.032 123.269C207.637 123.417 213.514 124.323 214.832 124.818C215.462 125.005 217.487 125.899 217.663 126.175C218.986 126.79 220.757 128.206 221.63 128.668C222.506 129.119 223.314 129.652 223.314 129.652C224.732 130.782 225.356 131.921 226.687 133.094C230.327 136.469 234.275 140.14 236.889 143.778C237.123 143.655 239.305 147.28 240.467 149.605C240.618 150.054 240.764 150.618 240.771 150.848C241.025 151.633 242.336 155.376 242.096 155.406L242.116 155.409C242.16 155.577 242.725 156.822 243.103 157.624C243.472 158.425 243.8 159.256 243.871 159.419L243.854 159.581C243.935 160.043 244.105 164.276 244.032 164.576C244.097 164.724 243.659 166.438 243.605 166.523C243.532 166.824 243.831 167.026 243.841 167.121C243.876 167.798 244.179 168.429 244.228 168.294C244.228 168.294 244.612 167.81 244.86 168.156C245.125 168.524 245.803 166.6 245.955 166.047C245.982 165.556 246.699 162.869 246.819 162.959C246.966 162.645 246.962 162.002 246.882 161.472C246.882 161.472 246.715 158.662 246.745 158.417C246.808 158.371 246.294 156.398 245.809 155.178C245.339 153.952 244.784 152.791 244.836 152.619C244.708 152.3 244.646 151.746 244.602 151.621L244.588 151.196C244.529 151.108 242.359 145.949 241.935 144.963C241.722 144.724 240.778 143.001 240.165 142.029C236.488 136.711 229.518 128.613 226.256 125.899C225.213 125.032 224.227 124.156 224.126 124.215C223.143 123.749 222.155 123.276 221.143 122.817C217.961 121.364 214.499 120.011 210.69 119.369C209.041 119.092 207.34 119.003 205.63 119.097C210.292 115.867 214.944 112.57 219.558 109.089C223.007 106.099 226.992 103.144 230.581 99.9926C234.431 96.5928 238.44 92.686 241.336 89.2737C241.998 88.4291 242.678 88.0068 243.387 87.4084C244.06 86.6058 244.649 85.8622 245.218 85.4362C245.503 85.2144 245.739 85.0928 246.032 84.9955C246.322 84.896 246.68 84.8451 247.094 84.837C247.925 84.8149 248.957 85.0058 250.083 85.2394C251.226 85.4701 252.359 85.6993 253.458 85.9219C253.378 85.899 253.299 85.8777 253.248 85.8629C255.557 86.3619 257.163 87.0664 259.265 87.7452C259.28 87.67 259.604 87.7813 259.774 87.8005C259.835 87.9162 260.626 88.236 261.797 88.6598C262.372 88.9023 263.036 89.1823 263.749 89.4823C264.438 89.8302 265.201 90.1544 265.928 90.5554C268.878 92.0972 271.592 94.2182 271.792 94.5794C271.975 94.7268 272.162 94.8801 272.354 95.0356C274.011 96.738 275.424 98.7073 276.608 100.679C277.812 102.644 278.723 104.647 279.599 106.422C279.852 106.785 280.117 107.168 280.374 107.538C280.613 107.918 280.84 108.289 281.061 108.598C281.172 109.313 281.511 109.336 281.722 110.173C281.725 112.439 282.203 113.587 282.218 112.449C282.743 114.159 282.959 115.942 283.102 117.504C283.206 118.227 283.293 118.948 283.348 119.684C283.408 120.31 283.278 120.656 283.097 120.958C283.097 121.749 283.053 122.027 282.977 122.307C282.905 122.587 282.814 122.875 282.646 123.675C282.486 123.849 282.414 124.865 282.232 125.891C282.155 126.407 282.057 126.926 281.951 127.34C281.86 127.758 281.765 128.071 281.699 128.172L281.768 127.906C281.014 129.692 280.004 130.621 279.023 132.226C276.164 136.64 272.145 141.144 268.586 144.991C268.744 145.204 265.204 148.617 263.09 150.879C262.662 151.245 262.106 151.663 261.873 151.795C261.135 152.461 261.572 152.31 261.059 152.823L260.82 152.737C260.249 153.649 259.584 153.703 258.984 154.503C259.018 154.605 257.813 155.951 257.68 155.76L257.687 155.779C257.54 155.934 257.449 156.056 257.24 156.219C257.033 156.578 254.957 159.825 254.753 160.196L253.952 161.322L253.995 161.251L253.509 161.75C253.405 161.829 250.714 164.519 250.412 164.745C250.345 164.922 249.142 165.934 248.926 166.121C248.898 166.17 248.893 166.176 248.921 166.125C248.808 166.223 248.687 166.325 248.579 166.381C248.294 166.64 247.73 168.415 247.761 168.427C247.759 168.502 249.268 168.507 249.862 167.845C249.992 167.849 250.367 167.66 250.863 167.247C251.231 166.831 251.739 166.247 251.793 166.405C251.962 165.969 254.589 164.519 254.961 164.065C254.961 164.065 256.554 162.676 256.315 162.972L256.815 162.467C256.851 162.377 257.441 161.736 257.776 161.327C258.174 161.097 261.276 156.667 261.653 156.581C261.901 156.295 262.914 155.621 262.914 155.621C263.446 154.761 265.028 154.011 265.392 153.436C265.499 153.366 265.62 153.28 265.709 153.232C265.696 153.223 265.679 153.222 265.668 153.208C265.87 153.096 265.864 153.121 265.845 153.212C265.845 153.225 267.35 151.264 268.265 150.522C268.458 150.235 268.242 150.459 268.478 150.097C269.379 149.309 270.008 148.772 270.901 147.904C271.055 147.508 278.445 142.088 280.338 139.751L280.336 139.751ZM244.456 167.51C244.52 167.486 244.577 167.492 244.598 167.557C244.55 167.734 244.505 167.678 244.456 167.51ZM248.612 167.799C248.684 167.808 248.728 167.843 248.705 167.918C248.551 168.07 248.544 167.991 248.612 167.799Z" fill="white"/>
<path d="M309.283 111.94C308.846 111.025 308.098 110.255 307.32 109.657C306.573 109.122 305.821 108.586 305.064 108.045C304.329 107.506 303.596 106.95 302.864 106.38C301.4 105.241 299.941 104.044 298.482 102.804C295.564 100.326 292.643 97.6777 289.678 94.9788C286.376 91.9991 277.234 84.1133 273.902 80.9973C273.414 80.5514 269.664 78.1613 267.695 76.716C267.943 77.089 264.589 75.0254 263.545 74.3577C263.873 74.379 263.155 73.729 262.518 73.16L262.695 73.4747C262.086 72.9404 261.443 72.3958 260.786 71.8511C260.456 71.5799 260.124 71.3072 259.792 71.0345C259.455 70.7641 259.155 70.5017 258.712 70.1789C257.289 69.1935 255.903 68.2332 254.697 67.3975C254.365 67.1668 254.159 66.9346 254.049 66.7762L251.705 65.2985C251.913 65.3059 251.232 64.6802 250.685 64.2461C250.411 64.0368 250.17 63.8938 250.112 63.84C250.079 63.8113 250.121 63.809 250.244 63.8518C249.653 63.6056 249.048 63.4568 248.403 63.5054C247.611 63.5533 246.892 63.9049 246.298 64.392C245.697 64.8637 245.203 65.5727 244.747 66.1689L244.336 66.7349C244.192 66.9346 244.053 67.138 243.921 67.3444C239.217 72.5513 234.131 78.1473 229.433 83.7639L229.626 83.6998C227.991 85.6801 226.812 87.67 224.554 89.825C223.284 91.6815 221.257 94.1187 221.062 95.1358C220.158 96.1713 219.845 96.651 219.497 97.1913C219.421 97.3202 219.346 97.4492 219.267 97.5811C219.182 97.6408 219.312 97.7197 219.369 97.7926C219.436 97.8656 219.505 97.9408 219.575 98.0167C219.853 98.3189 220.138 98.6372 220.447 99.0013C220.44 98.7647 220.781 99.0957 221.054 99.347C221.123 99.4089 221.19 99.4678 221.247 99.5187C221.323 99.5917 221.392 99.6565 221.438 99.6867C221.531 99.7494 221.543 99.6934 221.402 99.4133C221.255 98.8945 221.139 98.7109 221.001 98.5149C220.872 98.3292 220.727 98.1383 220.686 97.8251L220.588 97.8435L220.511 97.7049C220.537 97.6703 220.579 97.6393 220.61 97.6069L220.813 97.4212L221.202 97.0903C221.276 97.0232 221.293 97.021 221.415 96.9046L221.855 96.4734L222.733 95.6089L226.27 92.1303C228.628 89.7992 230.978 87.4401 233.326 85.0478C236.232 81.6429 239.703 78.2468 242.841 74.7984C243.676 73.8602 244.53 72.9021 245.384 71.9425C246.24 70.9623 247.062 70.0219 247.933 68.9511C248.101 68.7447 248.048 68.7941 248.088 68.7373L248.163 68.6172C248.212 68.5354 248.267 68.4536 248.332 68.3791C248.456 68.2266 248.656 68.1153 248.847 68.1588C249.036 68.1942 249.183 68.3187 249.357 68.4108L249.422 68.447C249.45 68.4639 249.444 68.4551 249.525 68.5089L249.888 68.7462C250.126 68.898 250.36 69.0476 250.591 69.195C251.481 69.7293 251.961 70.3351 252.606 70.938C253.433 71.4782 254.309 72.0671 255.195 72.6825C255.622 72.9795 256.12 73.3295 256.441 73.5757C256.868 73.9273 257.3 74.2832 257.735 74.6421C259.513 76.1132 261.342 77.6218 263.098 78.9941C263.036 78.9381 262.976 78.8835 262.937 78.8474C264.783 80.331 265.967 81.6768 267.771 83.1235C267.811 83.0579 268.089 83.2841 268.248 83.3652C268.329 83.8936 279.169 91.5238 279.664 92.2018C279.858 92.3455 280.058 92.4951 280.261 92.6462C282.97 95.0606 285.559 97.758 288.047 100.067C287.751 100.069 287.014 100.06 286.902 100.078V100.023C286.818 99.952 286.583 100.026 286.583 100.026L286.605 100.024L286.516 99.9204C286.513 99.8872 286.221 99.8334 286.16 99.6204C286.119 99.602 286.047 99.4885 286.107 99.5585C286.252 99.3838 286.051 99.2932 286.042 99.1966C285.968 99.2246 285.862 98.8908 285.84 98.834C285.83 98.8355 285.818 98.837 285.808 98.8384C285.819 98.8362 285.828 98.8348 285.839 98.8326C285.827 98.8023 285.817 98.7699 285.828 98.7249C285.792 98.6542 285.696 98.6844 285.666 98.7611C285.627 98.795 285.612 98.8281 285.607 98.8613C285.336 98.8864 285.038 98.8989 285.066 98.932C285.069 98.9689 285.038 98.9962 285.002 99.0227C284.993 99.0264 284.984 99.0345 284.975 99.0441C284.927 99.0765 284.88 99.1074 284.891 99.1495L284.942 99.1318C285.132 99.403 283.849 99.8673 284.076 100.181C284.102 102.179 288.071 107.444 287.929 107.567C287.929 107.567 291.708 111.031 292.236 111.575C292.5 111.847 292.745 112.147 292.981 112.462C293.088 112.608 293.244 112.806 293.303 112.918C293.31 112.981 293.312 113.04 293.304 113.097C293.304 113.213 291.965 118.789 291.89 118.782C291.89 118.782 290.976 119.932 291.026 120.418C290.284 121.519 289.532 122.752 288.917 124.109L289.012 124.145C288.809 124.63 288.897 125.305 288.356 125.645C288.317 126.202 288.025 126.784 288.3 127.278C288.008 127.703 288.067 128.034 287.827 128.494C288.11 128.583 287.731 129.069 288.049 129.031C288.549 129.043 288.329 128.814 288.743 128.814L288.671 128.758C289.864 128.071 290.945 127.242 291.946 126.278C292.381 125.442 293.162 124.773 293.713 123.96C294.279 123.061 294.807 122.021 295.107 121.127C295.162 120.906 296.578 119.082 296.856 118.134C296.847 118.15 296.835 118.164 296.827 118.173C297 117.686 297.4 117.428 297.55 116.932C297.479 116.908 297.765 116.027 297.765 115.232C297.758 114.905 297.827 114.266 297.807 113.883C297.8 113.476 297.769 113.197 297.819 113.132C297.804 113.06 297.788 112.988 297.773 112.919C297.822 112.201 297.754 111.42 297.465 110.698C297.215 109.997 296.585 109.225 296.373 109.063C296.127 109.06 293.652 107.002 293.448 106.71C293.558 106.472 292.461 105.442 292.189 105.154C291.519 104.268 290.523 103.577 289.844 102.816C289.658 102.997 288.752 101.331 288.773 101.237C288.7 101.034 288.16 100.309 288.204 100.212C289.01 100.957 289.807 101.66 290.592 102.296C291.397 102.752 292.277 103.296 292.986 103.642C293.457 104.233 293.756 104.099 294.415 104.703C295.697 106.699 296.908 107.322 296.171 106.38C297.664 107.502 299.06 108.749 300.347 109.792C300.972 110.241 301.593 110.687 302.225 111.142C302.768 111.518 302.982 111.834 303.128 112.175C303.802 112.673 304.039 112.891 304.206 113.089C304.308 113.204 304.293 113.226 304.349 113.314C304.39 113.391 304.45 113.484 304.514 113.628C304.45 113.738 304.686 114.04 304.636 114.494C304.646 114.562 304.582 114.825 304.507 115.052C304.433 115.285 304.363 115.506 304.3 115.702C304.171 116.096 304.033 116.383 303.968 116.478L304.058 116.226C303.14 117.873 302.042 118.642 300.883 120.08C299.209 122.048 297.228 124.02 295.203 125.996C293.168 127.968 291.139 129.993 289.31 131.83C289.459 132.046 285.834 135.362 283.737 137.646C283.314 138.018 278.481 142.738 278.481 142.738C278.342 142.901 278.258 143.029 278.059 143.206C277.854 143.569 275.709 147.494 275.709 147.494C275.367 147.949 275.2 148.49 275.2 148.49L274.777 149.016C274.685 149.099 274.089 150.144 273.531 150.455C273.438 150.553 272.716 150.828 272.612 150.765C272.639 150.842 271.984 150.679 271.991 150.714C271.952 150.721 271.354 150.615 271.314 150.616C271.306 150.613 271.297 150.615 271.288 150.618C271.234 150.615 270.442 151.122 270.33 151.177C270.232 151.225 270.552 151.953 271.22 152.224C271.231 152.333 271.437 152.641 271.978 152.803C272.454 152.835 274.436 153.397 276.43 151.183L278.116 149.446C278.143 149.354 278.652 148.669 278.961 148.25C279.305 147.982 282.082 143.444 282.473 143.357C282.708 143.066 282.885 142.988 283.26 142.718C283.252 142.699 286.512 139.983 286.504 140.006C287.024 139.946 288.864 137.258 289.1 136.906C289.994 136.147 305.131 123.225 305.714 120.876C306.22 120.933 307.377 119.805 308.265 118.477C308.494 118.151 308.698 117.813 308.874 117.484C309.055 117.153 309.213 116.871 309.351 116.546C309.409 116.417 309.514 116.141 309.572 115.962C309.636 115.766 309.684 115.592 309.717 115.445C309.784 115.152 309.796 114.971 309.773 114.942C309.886 113.903 309.73 112.858 309.283 111.941V111.94ZM284.883 99.4258C284.856 99.3927 284.905 99.3566 284.99 99.3204C284.956 99.3683 284.917 99.4104 284.883 99.4258ZM285.488 99.1686C285.507 99.1635 285.524 99.159 285.541 99.1546C285.57 99.0647 285.457 98.9984 285.397 98.9549C285.335 99.0183 285.342 99.0455 285.315 99.0735C285.273 99.0839 285.232 99.0809 285.192 99.0743C285.182 99.0706 285.171 99.0669 285.161 99.064L285.159 99.0374C285.128 99.0374 285.103 99.0286 285.079 99.0212C285.069 99.0057 285.069 98.9844 285.083 98.9519C285.119 98.9379 285.13 98.9792 285.147 98.9991C285.11 98.9556 285.361 98.9107 285.606 98.8716C285.6 98.9696 285.689 99.0632 285.601 99.1391C285.619 99.134 285.632 99.1296 285.641 99.1259V99.1944C285.595 99.2033 285.536 99.1944 285.488 99.1694L285.488 99.1686ZM272.12 150.678C272.1 150.687 272.083 150.696 272.06 150.703C272.082 150.696 272.102 150.687 272.12 150.678Z" fill="white"/>
<path d="M272.146 151.019C272.131 151.027 272.109 151.037 272.09 151.046C272.093 151.055 272.103 151.062 272.103 151.072C272.127 151.052 272.137 151.035 272.147 151.019H272.146Z" fill="white"/>
<path d="M250.245 63.8518C250.379 63.9078 250.514 63.9638 250.646 64.0294C250.455 63.9329 250.333 63.882 250.245 63.8518Z" fill="white"/>
<path d="M244.485 77.6587C244.491 77.6668 244.497 77.6742 244.503 77.6823C244.496 77.6735 244.491 77.6676 244.484 77.6587H244.485Z" fill="white"/>
<path d="M244.891 77.9239C244.876 77.9085 244.868 77.9085 244.854 77.8982C244.86 77.9041 244.867 77.9122 244.872 77.9195C244.879 77.9217 244.883 77.9203 244.891 77.9247L244.891 77.9239Z" fill="white"/>
<path d="M244.422 77.6786C244.379 77.6956 244.44 77.7634 244.512 77.7921C244.555 77.8223 244.585 77.8327 244.613 77.8393C244.738 78.0243 244.865 78.227 244.881 78.21C244.909 78.2122 244.943 78.2365 244.978 78.2623C244.985 78.2682 244.995 78.2756 245.006 78.283C245.05 78.3183 246.027 78.8298 246.043 78.7458C246.128 78.7915 246.285 78.751 246.23 78.7045C246.298 78.7163 246.529 78.6913 246.473 78.6205C246.522 78.5807 246.59 78.5254 246.646 78.5055C246.771 78.5689 247.358 78.252 247.416 78.3036C247.428 78.2867 248.085 78.112 247.963 77.8865C248.041 77.9926 248.853 78.1857 248.955 78.2071C248.88 78.0729 249.225 78.3095 249.251 78.2911C249.357 78.3817 249.323 78.3449 249.415 78.4392C249.487 78.5512 250.543 78.8202 250.628 78.8932C250.702 78.9706 253.802 80.1616 253.969 80.0842C253.847 80.236 256.532 81.6326 257.279 81.6916C257.279 81.6916 258.079 81.3518 258.172 81.6518C258.542 81.5169 258.868 81.5641 259.288 81.2162C259.506 81.3135 259.756 81.1772 260.017 81.2287C260.158 80.9951 260.399 81.1425 260.461 80.9177C260.605 80.5419 260.381 80.7681 260.49 80.4586L260.432 80.5271C260.257 79.8181 259.935 79.2337 259.524 78.7377C259.056 78.6441 258.813 78.2188 258.42 78.0088C257.986 77.8002 256.965 77.3905 256.967 77.2416C256.594 77.1347 255.626 76.3262 255.414 76.2562C255.377 76.3218 253.383 74.9716 252.999 74.8545C252.851 74.9672 249.349 74.172 249.05 74.214C248.195 74.214 246.693 75.5281 246.466 75.6143C246.235 75.6998 244.788 77.5909 244.714 77.5858C244.764 77.6396 244.459 77.6912 244.419 77.6794L244.422 77.6786ZM245.344 78.3876C245.329 78.4024 245.28 78.3648 245.219 78.3051C245.27 78.3331 245.319 78.3633 245.344 78.3876Z" fill="white"/>
<path d="M285.6 99.1384C285.584 99.1436 285.564 99.1488 285.541 99.1548C285.539 99.1622 285.542 99.1689 285.538 99.177C285.566 99.1651 285.584 99.1518 285.6 99.1384Z" fill="white"/>
<path d="M286.02 98.77C286.009 98.7928 285.955 98.8097 285.884 98.8236C285.997 98.8031 286.068 98.7847 286.02 98.77Z" fill="white"/>
<path d="M285.884 98.8237C285.869 98.8267 285.855 98.8289 285.838 98.8319V98.8333C285.856 98.8304 285.867 98.8267 285.883 98.8237H285.884Z" fill="white"/>
<path d="M1464.84 179.44C1465.23 174.822 1464.86 170.221 1464.33 165.657C1464 162.725 1462.73 160.049 1460.25 158.13C1455.83 154.71 1451.32 151.542 1445.49 150.932C1443.35 150.708 1441.26 150.044 1439.13 149.715C1436.23 149.269 1433.35 149.22 1430.42 149.923C1426.24 150.923 1422.22 152.627 1417.82 152.764C1416.65 152.801 1415.49 153.521 1414.34 153.983C1413.2 154.446 1412.08 154.97 1410.96 155.481C1404.11 158.603 1396.98 161.059 1390.13 164.217C1385.05 166.557 1380.3 169.259 1375.87 172.589C1374.82 172.526 1374.04 172.907 1373.66 173.926C1373.13 174.307 1372.59 174.688 1372.06 175.069C1369.67 175.449 1367.55 176.319 1366.17 178.453C1365.93 178.514 1365.74 178.64 1365.59 178.832C1365.58 178.981 1365.58 179.13 1365.58 179.279C1365.58 179.13 1365.58 178.981 1365.59 178.832C1358.65 181.562 1352.93 186.189 1347.1 190.653C1346.89 190.818 1346.82 191.186 1346.69 191.46C1346.17 191.872 1345.66 192.285 1345.14 192.698C1344.02 192.733 1343.51 193.498 1343.12 194.394C1342.55 194.736 1341.97 195.077 1341.4 195.419C1340.42 195.653 1339.65 196.13 1339.4 197.186C1337.06 198.924 1334.89 200.974 1332.34 202.327C1328.54 204.346 1325.32 207.165 1321.55 209.249C1316.06 212.283 1311.15 216.296 1306.19 220.198C1300.41 224.75 1294.6 229.297 1288.01 232.752C1284.23 234.738 1280.72 237.267 1277.09 239.552C1276.25 240.041 1275.4 240.53 1274.56 241.019C1275.17 241.253 1275.77 241.485 1276.37 241.718C1275.77 241.485 1275.17 241.252 1274.56 241.019C1271.83 241.928 1269.53 243.577 1267.28 245.296C1267.22 245.521 1267.19 245.739 1267.19 245.948C1267.19 245.739 1267.22 245.521 1267.28 245.295C1266.21 245.232 1265.07 244.885 1264.11 245.159C1261.04 246.033 1257.95 246.948 1255.03 248.222C1253.19 249.02 1251.32 249.514 1249.44 250.069C1247.9 250.316 1246.36 250.564 1244.83 250.811C1244.55 251.048 1244.31 251.241 1244.1 251.399C1244.31 251.242 1244.55 251.048 1244.83 250.811C1243.55 250.368 1242.3 250.36 1241.09 251.052C1240.49 250.962 1239.89 250.897 1239.29 250.775C1236.86 250.274 1235.96 249.489 1235.88 247.293C1235.76 244.436 1235.53 241.544 1236.84 238.816C1238.09 236.223 1239.23 233.58 1240.41 230.96C1242.31 229.542 1242.68 227.361 1243.27 225.29C1243.39 224.959 1243.52 224.628 1243.64 224.296C1243.4 224.221 1243.18 224.135 1242.99 224.03C1243.18 224.135 1243.4 224.221 1243.64 224.296C1245.48 221.362 1247.3 218.421 1249.16 215.497C1250.53 213.323 1251.94 211.169 1253.34 209.009C1254.4 207.374 1255.94 206.006 1256.17 203.917C1256.17 203.917 1256.17 203.917 1256.17 203.916C1256.71 203.651 1257.47 203.529 1257.75 203.098C1259.48 200.376 1261.77 198.177 1264.03 195.918C1264.09 195.85 1264.14 195.76 1264.2 195.682C1265.36 195.056 1266.11 194.002 1266.74 192.807C1266.89 192.719 1267.03 192.623 1267.15 192.508C1267.86 191.817 1268.56 191.102 1269.25 190.389C1270.57 190.088 1271.68 189.407 1272.52 188.175C1273.1 187.31 1273.86 186.654 1274.76 186.023C1276.74 184.637 1278.61 183.006 1279.29 180.488C1283.06 178.545 1285.68 175.202 1288.92 172.613C1291.19 170.794 1293.3 168.739 1295.34 166.655C1297.37 164.581 1299.09 162.196 1301.19 160.196C1306.78 154.857 1311.71 148.926 1316.69 143.051C1319.97 139.18 1323.08 135.153 1326.08 131.058C1329.82 125.954 1332.5 120.214 1335.6 114.724C1336.19 113.67 1336.47 112.442 1336.91 111.3C1337.63 109.44 1338.36 107.587 1339.08 105.728C1340.02 103.29 1341.18 100.906 1341.82 98.3926C1342.66 95.1196 1343.13 91.7493 1343.67 88.407C1344.95 80.5823 1345.32 72.7466 1342.73 65.115C1341.51 61.4956 1340.37 57.8084 1338.09 54.587C1335.24 50.5468 1331.22 48.0115 1327.07 45.6443C1321.71 42.588 1316.17 39.9105 1310.29 37.9456C1306.46 36.667 1302.62 35.731 1298.55 35.7148C1296.4 35.7059 1294.23 35.5268 1292.11 35.1885C1288.65 34.6373 1285.39 34.994 1282.12 36.2933C1277.83 37.9972 1273.42 39.3312 1268.93 40.4802C1265.34 41.4007 1261.84 42.641 1258.86 44.9906C1258.29 45.8249 1257.33 46.4167 1256.91 47.3954C1257.33 46.4159 1258.29 45.8241 1258.86 44.9891C1255.8 45.0319 1253.65 47.3534 1250.91 48.1936C1249.4 48.2707 1248.48 48.9352 1248.15 50.1871C1246.2 50.5269 1244.21 50.7296 1242.3 51.241C1240.26 51.7879 1238.05 52.2286 1237.07 54.5295C1235.8 55.0631 1234.49 55.5097 1233.28 56.1494C1230 57.8799 1226.78 59.7342 1223.5 61.4521C1222.15 62.1604 1220.36 62.3129 1219.32 63.299C1216.93 65.5712 1213.99 66.9567 1211.39 68.8722C1208.05 71.3419 1204.72 73.8285 1201.43 76.3807C1200.6 77.0256 1199.91 77.8901 1199.3 78.7575C1198.62 79.7296 1198.69 80.8115 1199.42 81.7681C1200.17 82.7513 1201.6 83.0498 1202.76 82.4314C1203.71 81.9244 1204.62 81.3304 1205.51 80.729C1207.04 79.7001 1208.59 78.6846 1210.06 77.5732C1212.28 75.9017 1214.42 74.1292 1216.62 72.4437C1218.2 71.2387 1219.76 69.9703 1221.46 68.9695C1224.79 67.0216 1228.22 65.2698 1231.57 63.3683C1232.22 63.002 1232.69 62.321 1233.24 61.7852C1234.27 62.1036 1235.01 61.7322 1235.5 60.8006C1237.4 59.6443 1239.31 58.4872 1241.22 57.3301C1242.33 57.6138 1242.98 57.2616 1242.99 56.0396L1243.02 55.9925C1243.88 55.7316 1244.75 55.4707 1245.61 55.209C1246.68 55.4021 1247.32 54.9349 1247.54 53.8073C1248.17 53.6628 1248.79 53.5184 1249.42 53.3739C1249.89 53.5773 1250.54 54.0814 1250.79 53.9296C1251.59 53.4417 1252.24 52.7106 1252.95 52.0753C1255.19 51.6891 1257.58 51.7569 1259.31 49.9027C1260.19 49.8304 1261.14 49.9484 1261.94 49.6536C1265.01 48.512 1268.04 47.2392 1271.08 46.015C1272.38 46.6319 1273.41 46.3231 1274.19 45.1321C1274.67 44.9545 1275.15 44.7754 1275.62 44.597C1276.05 44.6936 1276.55 44.984 1276.89 44.8565C1279.5 43.8925 1282.07 42.8467 1284.65 41.8267C1288.32 41.0042 1291.96 41.366 1295.59 42.0971C1296.53 43.1931 1297.56 43.3508 1298.7 42.3941C1300.84 42.5872 1302.97 42.7803 1305.11 42.9734C1305.63 43.9278 1306.43 44.0863 1307.4 43.7532C1312.69 46.2221 1318.03 48.5739 1323.24 51.2057C1326.38 52.7924 1329.4 54.6953 1331.76 57.3927C1334.89 60.9775 1335.51 65.723 1337.42 69.8767C1337.52 73.8683 1337.94 77.8857 1337.62 81.8455C1337.27 86.2528 1336.26 90.6084 1335.52 94.984C1335.24 96.6496 1335.21 98.4338 1334.56 99.9484C1332.33 105.149 1329.86 110.243 1327.52 115.399C1325.48 119.887 1323.29 124.294 1320.12 128.1C1313.62 135.898 1307.63 144.079 1300.65 151.519C1294.5 158.083 1288.3 164.61 1282.11 171.145C1278.45 173.875 1275.12 176.992 1271.68 179.984C1271.27 180.347 1271.12 181.016 1270.84 181.543C1270.57 181.671 1270.23 181.734 1270.04 181.935C1267.26 184.907 1264.46 187.876 1261.75 190.912C1261.43 191.258 1261.5 191.939 1261.43 192.497C1261.37 192.548 1261.32 192.595 1261.26 192.645C1259.9 192.9 1258.86 193.668 1258.29 194.914C1258.26 194.981 1258.23 195.045 1258.2 195.112C1257.5 195.646 1256.84 196.183 1256.26 196.77C1255.99 197.608 1255.73 198.397 1255.48 199.17C1254.81 199.843 1254.04 200.441 1253.15 200.943C1252.66 201.215 1252.59 202.229 1252.33 202.9C1251.61 203.456 1250.73 203.892 1250.2 204.589C1247.24 208.436 1244.31 212.311 1241.49 216.261C1240.72 217.345 1240.35 218.72 1239.8 219.964C1239.8 219.961 1239.72 220.158 1239.72 220.158C1238.54 220.917 1237.57 221.769 1238.27 223.369C1237.89 224.139 1237.52 224.91 1237.14 225.68C1236.17 226.111 1235.65 226.82 1235.74 227.915C1235.31 228.752 1234.88 229.59 1234.45 230.427C1232.93 231.351 1232.27 232.707 1232.42 234.466C1229.96 238.744 1229.26 243.251 1230.04 248.163C1230.66 252.058 1232.48 254.617 1236.25 255.767C1236.7 256.143 1237.12 256.811 1237.59 256.841C1239.06 256.937 1240.6 257.321 1241.98 256.404C1244.16 256.144 1246.34 255.886 1248.52 255.627C1250.87 255.966 1253.03 255.241 1255.18 254.424C1257.48 253.549 1259.78 252.673 1262.09 251.823C1264.53 250.928 1266.97 250.063 1269.41 249.18C1270.01 249.012 1270.62 248.838 1271.22 248.665C1273.45 247.7 1275.71 246.806 1277.88 245.736C1278.79 245.287 1279.52 244.465 1280.33 243.813C1280.04 243.385 1279.74 242.959 1279.39 242.444C1279.27 242.272 1279.15 242.09 1279.01 241.896C1279.15 242.09 1279.27 242.272 1279.39 242.444C1279.74 242.959 1280.04 243.385 1280.33 243.813C1280.86 243.408 1281.39 243.002 1281.93 242.597C1283.19 242.509 1284.38 242.31 1284.85 240.881C1285.12 240.827 1285.37 240.705 1285.58 240.515C1286.65 240.639 1287.4 240.186 1287.9 239.255C1290.22 238.069 1292.5 236.776 1294.88 235.719C1299.61 233.622 1303.33 230.092 1307.43 227.113C1311.03 224.495 1314.35 221.477 1317.97 218.891C1322.73 215.495 1327.61 212.257 1332.55 209.118C1338.42 205.385 1343.43 200.61 1348.8 196.26C1349.95 196.277 1350.34 195.398 1350.78 194.573L1350.8 194.573C1351.08 194.478 1351.43 194.456 1351.64 194.276C1356.25 190.425 1361.28 187.239 1366.72 184.697C1368.81 183.723 1370.65 182.395 1372.18 180.672C1373.04 180.217 1373.89 179.761 1374.74 179.305C1375.98 179.699 1376.49 178.9 1376.92 177.965C1379.09 176.803 1381.26 175.642 1383.43 174.477C1387.5 172.286 1391.52 169.983 1395.66 167.941C1397.99 166.794 1400.58 166.18 1402.98 165.144C1409.91 162.143 1416.75 158.917 1424.32 157.717C1427.51 157.211 1430.64 156.108 1433.84 155.852C1438.82 155.453 1443.5 157.444 1448.32 158.395C1448.47 158.424 1448.61 158.513 1448.74 158.596C1450.8 159.94 1452.84 161.319 1454.92 162.625C1457.08 163.978 1458.06 165.957 1458.14 168.42C1458.25 171.962 1458.71 175.442 1459.57 178.89C1460.14 181.147 1460.18 183.46 1459.3 185.711C1458.85 186.851 1458.48 188.024 1458.14 189.203C1457.99 189.754 1457.92 190.363 1457.97 190.93C1458.02 191.482 1458.34 192.004 1458.43 192.557C1458.5 192.96 1457.33 193.186 1458.42 194.023C1461.25 190.908 1463.47 187.468 1464.77 183.524C1465.18 182.29 1464.73 180.8 1464.84 179.441L1464.84 179.44ZM1254.33 202.922C1254.68 202.945 1255.03 203.006 1255.35 203.165C1255.03 203.006 1254.68 202.946 1254.33 202.922ZM1254.25 202.918C1254 202.907 1253.75 202.907 1253.5 202.915C1253.75 202.907 1254 202.907 1254.25 202.918ZM1239.17 255.553C1240.1 255.545 1241.02 255.706 1241.88 256.331C1241.02 255.706 1240.1 255.546 1239.17 255.553Z" fill="white"/>
<path d="M1359.29 227.274C1359.23 226.308 1359.65 225.582 1360.48 225.147C1361.86 224.429 1363.24 223.666 1364.69 223.136C1365.56 222.819 1366.31 222.344 1367.11 221.928C1367.45 221.751 1367.78 221.561 1368.11 221.356C1369.72 220.346 1371.36 219.375 1372.92 218.294C1373.7 217.759 1374.09 216.866 1374.08 215.933C1374.06 213.804 1373.95 211.678 1373.88 209.55C1373.84 208.382 1373.73 207.185 1375.19 206.614C1375.01 206.223 1374.84 205.931 1374.75 205.612C1374.64 205.179 1374.34 204.672 1374.81 204.304C1375.35 203.872 1375.77 204.332 1376.17 204.635C1376.31 204.737 1376.41 204.881 1376.53 205.006C1377.37 205.919 1378.22 206.818 1379.04 207.748C1380.28 209.16 1381.45 210.634 1382.74 212.002C1383.97 213.307 1384.41 213.473 1386.01 212.79C1388.03 211.931 1390.1 211.206 1392.14 210.403C1394.27 209.568 1396.46 209.586 1398.66 209.814C1399.71 209.923 1400.66 210.27 1401.3 211.182C1401.65 211.67 1401.84 212.154 1401.44 212.713C1400.93 213.407 1400.49 214.156 1399.93 214.799C1399.23 215.596 1398.46 216.34 1397.67 217.047C1397.22 217.442 1397.18 217.85 1397.38 218.312C1397.58 218.758 1402.89 223.986 1402.93 224.033C1404.32 225.557 1405.67 227.112 1407.21 228.492C1408.71 229.829 1410.04 231.354 1410.99 233.129C1411.5 234.09 1411.67 235.208 1410.83 236.141C1410.12 236.935 1409.22 237.543 1408.08 237.235C1405.43 236.516 1402.85 235.551 1400.43 234.288C1398.05 233.043 1395.54 232.222 1392.93 231.696C1392.3 231.569 1391.28 231.758 1390.91 232.192C1389.98 233.286 1389.3 234.599 1388.54 235.836C1388.38 236.088 1388.37 236.428 1388.2 236.67C1386.57 239.028 1385.1 241.504 1383.15 243.645C1382.34 244.539 1381.42 244.961 1380.2 244.934C1379.22 244.913 1378.64 244.526 1378.43 243.611C1378.25 242.797 1378.09 241.973 1377.95 241.15C1377.85 240.561 1377.72 239.967 1377.71 239.373C1377.68 236.572 1377.69 233.771 1377.68 230.971C1377.68 230.057 1377.48 229.891 1376.6 230.062C1376.26 230.129 1375.93 230.255 1375.59 230.259C1372.96 230.298 1370.33 230.407 1367.71 230.305C1365.82 230.232 1363.94 229.885 1362.07 229.626C1361.61 229.562 1361.15 229.397 1360.71 229.222C1359.84 228.873 1359.34 228.241 1359.29 227.273L1359.29 227.274Z" fill="white"/>
<path d="M1206.85 118.74C1207.83 117.782 1208.71 116.79 1209.44 115.772C1210.16 114.75 1213.01 111.904 1214.14 110.451C1214.7 109.731 1215.16 108.867 1215.41 108.153C1215.65 107.44 1215.73 106.933 1215.68 106.887C1215.8 105.292 1215.56 103.731 1215.11 102.363C1215.39 103.318 1215.6 104.339 1215.64 105.413C1215.6 104.338 1215.39 103.317 1215.11 102.363C1214.39 100.198 1213.28 98.4317 1212.11 96.8287C1210.95 95.2353 1209.63 93.7525 1208.43 92.3736C1205.98 89.5465 1203.5 86.6037 1200.9 83.6652C1199.45 82.0394 1196.67 79.1106 1193.78 76.2533C1190.9 73.3937 1184.23 67.7447 1183.19 67.0313C1182.13 66.3171 1178.42 64.7532 1177.43 64.3383C1176.45 63.9174 1173.92 63.0154 1172.89 62.9196C1172.89 62.9196 1169.26 63.2011 1167.51 63.8858C1165.74 64.5866 1162.35 66.6797 1162.15 66.7283C1161.42 67.3268 1155.95 71.5151 1154.71 73.023C1149.48 77.4634 1144.12 82.4212 1139.19 87.5308L1139.39 87.4954C1137.69 89.3055 1136.46 91.1981 1134.12 93.1032C1132.81 94.8484 1130.73 97.0933 1130.53 98.1266C1128.8 99.8902 1128.29 100.794 1126.66 102.592C1127.32 102.375 1125.22 104.492 1126.25 103.832C1127.7 103.022 1127.51 102.7 1128.73 102.002L1128.63 101.956C1133.54 97.8856 1138.38 93.7466 1143.27 89.5538C1146.3 86.4916 1149.94 83.5753 1153.28 80.6111C1156.84 77.4082 1160.69 73.9406 1163.75 71.182C1164.44 70.5371 1165.14 70.361 1165.85 70.0544C1167.25 69.0506 1168.94 68.1537 1170.6 67.8162C1172.28 67.4653 1173.82 67.7115 1175.44 68.4654C1175.38 68.433 1175.33 68.4021 1175.29 68.3814C1176.13 68.7742 1176.83 69.3152 1177.52 69.8996C1178.21 70.4863 1178.89 71.1231 1179.75 71.8144C1179.8 71.7407 1180.07 71.9559 1180.22 72.0273C1180.24 72.3037 1182.87 74.2206 1185.49 76.2422C1188.12 78.2564 1190.74 80.3724 1190.94 80.7283C1191.12 80.8757 1191.3 81.0275 1191.49 81.183C1194.76 84.5349 1197.57 88.5206 1200.34 91.3904C1201.08 91.8909 1207.41 98.5319 1208.24 99.7236C1208.65 100.25 1209.06 100.776 1209.4 101.326C1209.7 101.788 1209.71 102.119 1209.62 102.428C1210.13 103.612 1209.87 103.341 1209.94 104.543C1209.82 104.7 1209.96 105.387 1209.9 106.125C1209.88 106.85 1209.57 107.671 1209.42 107.814C1209.45 107.744 1209.48 107.674 1209.5 107.605C1209.09 108.258 1208.52 108.718 1207.93 109.168C1207.34 109.62 1206.7 110.071 1206.02 110.766C1202.16 114.481 1198.26 118.84 1194.75 122.347C1194.93 122.587 1191.41 125.687 1189.33 127.78C1188.9 128.109 1188.34 128.475 1188.11 128.584C1187.37 129.187 1187.06 129.436 1187.06 129.436C1186.52 130.316 1183.74 132.495 1183.53 132.64C1183.33 132.987 1181.38 136.138 1181.2 136.504L1180.48 137.522C1180.48 137.522 1177.29 140.592 1176.99 140.798C1176.94 140.974 1174.75 144.142 1174.47 144.215C1174.5 144.129 1174.64 144.019 1174.73 143.93C1174.33 144.325 1174.12 144.565 1174.38 144.301C1174.67 144.105 1174.41 144.661 1174.69 144.442L1174.83 144.035C1175.21 143.724 1174.87 143.82 1174.87 143.82C1174.69 144.116 1174.33 144.434 1174.62 144.408C1174.31 146.266 1176.13 144.618 1176.69 143.981C1176.83 143.997 1183.61 138.916 1183.45 139.036C1183.6 138.738 1186.71 135.278 1186.94 134.841C1186.9 134.729 1184.05 138.514 1184.47 138.019C1184.86 137.822 1187.8 133.578 1188.2 133.536C1188.44 133.269 1188.63 133.213 1189.02 132.989C1189.01 132.967 1190.64 131.956 1190.75 132.04C1191.23 131.667 1193.84 128.709 1194.75 128.054C1194.94 127.78 1194.73 127.985 1194.95 127.64C1195.85 126.935 1196.48 126.457 1197.37 125.669C1197.5 125.277 1204.91 120.657 1206.86 118.74H1206.85Z" fill="white"/>
<path d="M1178.05 148.176C1177.77 147.786 1177.49 147.398 1177.2 147.015C1176.62 146.249 1176.01 145.501 1175.38 144.778C1174.1 143.332 1172.75 141.993 1171.39 140.793C1168.66 138.39 1162.16 133.482 1160.98 132.19C1159.79 130.898 1158.58 129.75 1158.44 129.797C1157.3 129.032 1156.19 128.213 1155.09 127.341C1151.6 124.582 1148.26 121.273 1144.78 117.826C1143.03 116.103 1141.24 114.345 1139.36 112.611C1137.48 110.869 1135.49 109.179 1133.45 107.561C1131.18 105.754 1126.78 102.683 1122.31 99.8452C1121.75 99.49 1121.19 99.134 1120.64 98.781C1120.19 98.5046 1119.75 98.2297 1119.31 97.9563C1118.79 97.6667 1118.27 97.4176 1117.75 97.1478C1116.69 96.4993 1115.74 96.3651 1114.77 96.4411C1114.28 96.4816 1113.77 96.6224 1113.32 96.8324C1112.88 97.0476 1112.51 97.307 1112.18 97.6033C1112.03 97.764 1111.85 97.8856 1111.74 98.1177C1111.62 98.3514 1111.51 98.5835 1111.39 98.8135C1111.17 99.2748 1110.95 99.7273 1110.73 100.171C1110.51 100.617 1110.29 101.053 1110.08 101.479C1109.97 101.683 1109.89 101.937 1109.81 102.141C1109.76 102.274 1109.71 102.406 1109.66 102.537C1109.29 103.468 1108.32 106.043 1108.86 104.73C1107.96 108.198 1104.76 120.727 1104.3 121.665C1104.3 121.665 1102.86 125.079 1101.88 126.899C1100.87 128.693 1099.79 130.386 1098.7 131.731C1098.42 132.113 1098.1 132.355 1097.89 132.493C1097.19 133.474 1096.31 134.598 1095.84 136.234C1095.76 135.988 1095.34 137.005 1095.3 137.921C1095.27 138.362 1095.29 138.737 1095.28 138.834C1095.28 138.93 1095.18 138.757 1095.12 138.068C1095.16 138.608 1095.29 139.14 1095.45 139.637C1095.62 140.121 1095.82 140.58 1096.06 140.981C1096.52 141.793 1097.06 142.435 1097.59 142.999C1098.12 143.555 1098.66 144.038 1099.17 144.454C1099.66 144.864 1100.17 145.255 1100.69 145.613C1107.32 151.652 1114.49 157.946 1121.64 163.86L1121.55 163.626C1124.07 165.675 1126.55 167.204 1129.37 169.976C1131.73 171.572 1134.96 173.963 1136.23 174.145C1138.84 176.04 1140.07 176.535 1142.78 178.081C1142.25 177.41 1145.58 179.327 1144.37 178.334C1142.84 176.914 1142.55 177.161 1141.3 175.909L1141.29 176.023C1134.83 171.108 1129.1 165.115 1122.9 159.27C1118.56 155.624 1114.18 151.31 1109.8 147.379C1107.43 145.272 1104.95 143.095 1102.54 141.006C1101.35 140.01 1100.47 139.105 1100.2 138.492C1100.07 138.2 1100.02 138 1100.05 137.72C1100.07 137.438 1100.23 137.031 1100.48 136.585C1100.96 135.696 1101.82 135.168 1102.64 134.28C1104.23 132.124 1105.83 129.552 1107.19 126.813C1108.56 124.076 1109.71 121.191 1110.62 118.463C1110.58 118.563 1110.54 118.66 1110.51 118.724C1111.51 115.84 1112.51 113.785 1113.38 110.992C1113.29 110.978 1113.43 110.546 1113.45 110.323C1113.59 110.235 1113.94 109.154 1114.41 107.585C1114.64 106.804 1114.91 105.9 1115.2 104.934C1115.27 104.704 1115.34 104.469 1115.41 104.232L1115.48 103.932C1115.53 103.72 1115.58 103.503 1115.63 103.287C1115.68 103.067 1115.76 102.797 1115.97 102.689C1116.18 102.585 1116.41 102.646 1116.6 102.717C1116.8 102.796 1116.99 102.889 1117.19 102.977C1117.29 103.024 1117.39 103.07 1117.49 103.114L1117.65 103.193C1117.75 103.246 1117.84 103.298 1117.94 103.349C1119.45 104.168 1120.51 104.785 1120.7 104.967C1120.97 105.114 1121.24 105.265 1121.52 105.419C1126.66 108.8 1131.35 113.006 1135.25 116.29C1136.22 116.871 1137.27 117.589 1138.12 118.073C1138.68 118.829 1139.04 118.693 1139.82 119.497C1141.3 122.03 1145.23 125.02 1146.74 126.485C1147.48 127.128 1148.22 127.767 1148.96 128.416C1149.61 128.957 1149.86 129.369 1150.03 129.802C1151.67 131.215 1151.06 130.923 1152.67 132.534C1152.87 133.145 1157.22 135.999 1157.65 136.452L1157.34 136.244C1159.3 137.974 1160.28 139.493 1162.21 141.125C1164.72 143.329 1167.42 145.544 1169.91 147.748C1171.15 148.853 1172.32 149.967 1173.38 151.105C1173.6 151.349 1173.82 151.593 1174.04 151.834C1174.11 151.915 1174.74 152.677 1174.72 152.734C1174.59 153.031 1174.28 153.185 1174.03 153.322C1173.98 153.348 1173.99 153.334 1173.9 153.393L1173.61 153.584L1173.04 153.965L1171.88 154.729C1170.34 155.748 1168.8 156.78 1167.3 157.89C1166.69 158.249 1165.92 158.661 1165.6 158.783C1164.54 159.462 1162.36 160.726 1161.44 161.615C1161.46 161.741 1159.69 163.226 1159.58 162.984C1159.58 162.984 1159.23 163.318 1158.94 163.494C1158.77 163.698 1157.89 164.743 1157.02 165.789C1156.15 166.854 1155.3 167.916 1155.15 168.146L1154.01 169.494L1153.41 170.018C1153.28 170.114 1150.45 172.983 1150.89 172.563C1150.08 173.294 1149.75 173.515 1149.37 173.82C1149.27 174.036 1147.47 175.801 1147.08 176.046C1146.72 176.404 1145.87 178.786 1146.21 178.677C1146.62 179.405 1149.23 177.361 1149.82 176.811C1150.26 176.27 1151.81 175.089 1153.37 174.142C1153.79 173.95 1154.39 173.325 1154.88 172.792L1157.28 170.93C1157.33 170.825 1160.07 168.179 1161.33 166.907C1162.6 165.641 1163.89 164.415 1164.12 164.393C1164.48 164.088 1164.71 164.022 1165.24 163.77C1165.24 163.746 1165.84 163.434 1165.84 163.434C1166.68 162.497 1168.74 161.866 1169.32 161.255C1169.47 161.191 1169.96 160.965 1169.92 161.067C1169.91 161.083 1173.5 158.274 1173.88 157.896C1174.52 157.518 1175.06 157.198 1175.61 156.875C1175.75 156.792 1175.89 156.71 1176.02 156.626L1176.23 156.497L1176.51 156.321C1176.89 156.073 1177.3 155.808 1177.69 155.471C1178.01 154.911 1178.72 154.328 1179.04 153.625C1179.17 153.314 1179.65 151.665 1179.13 150.834C1178.96 150.786 1178.44 148.728 1178.04 148.172L1178.05 148.176Z" fill="white"/>
<path d="M1128.91 112.967C1128.91 112.967 1128.39 112.597 1128.18 112.415L1128.48 112.663L1130.01 113.804L1129.14 113.158L1128.48 112.663L1128.18 112.415C1127.02 111.459 1125.9 110.516 1124.82 109.586C1121.01 106.712 1119.15 112.445 1117.84 115.092C1116.24 118.359 1114.55 121.705 1112.92 125.164C1112.33 126.429 1111.51 128.393 1110.47 130.279C1109.94 131.217 1109.36 132.132 1108.71 132.893L1108.46 133.172C1108.24 133.45 1108.05 133.625 1107.79 133.836C1107.31 134.241 1106.87 134.654 1106.28 135.039C1103.84 137.495 1105.06 139.333 1105.47 139.724C1106.3 140.516 1107.1 141.271 1107.84 141.979C1108.21 142.337 1108.58 142.685 1108.93 143.019C1109.11 143.203 1109.29 143.38 1109.45 143.549C1109.77 143.877 1110.06 144.175 1110.32 144.436C1110.75 144.879 1125.61 156.122 1127.59 157.976C1127.87 158.231 1128.03 158.484 1128.1 158.655C1128.1 158.655 1133.51 163.786 1135.13 164.775C1136.37 165.88 1137.63 167.002 1138.9 168.136C1140.27 169.318 1141.64 170.512 1143.03 171.712C1143.5 172.131 1143.99 172.52 1144.48 172.795C1144.97 173.068 1145.54 173.271 1146.13 173.19C1146.72 173.114 1147.21 172.828 1147.7 172.492C1148.19 172.151 1148.65 171.719 1149.11 171.326L1151.11 169.519C1151.74 168.933 1152.38 168.347 1153.01 167.762C1153.01 167.762 1155.85 164.338 1158.24 162.651C1159.62 161.034 1168.91 153.08 1166.68 152.799C1165.19 153.453 1165.35 153.788 1164.1 154.357C1164.1 154.357 1154.07 161.656 1149.08 165.498C1148.31 166.207 1147.49 166.907 1146.66 167.603L1146.32 167.899C1146.23 167.976 1146.12 168.071 1145.99 168.045C1145.86 168.016 1145.77 167.908 1145.68 167.824L1145.55 167.694L1145.18 167.352C1144.37 166.602 1143.55 165.859 1142.73 165.136C1139.19 162.046 1135.3 158.762 1132.16 156.228C1131.39 155.642 1131.05 154.987 1130.54 154.329C1127.71 151.929 1124.3 148.668 1121.1 145.969C1121.15 146.025 1121.21 146.079 1121.24 146.115C1119.57 144.653 1118.55 143.3 1116.92 141.875C1116.86 141.946 1116.61 141.723 1116.46 141.646C1116.46 141.474 1115.49 140.636 1114.15 139.542C1113.81 139.27 1113.45 138.98 1113.08 138.68C1112.88 138.537 1112.76 138.473 1112.57 138.35L1112.01 137.986C1112.01 137.986 1111.37 137.554 1112.44 136.573L1112.48 136.515L1112.49 136.495L1112.54 136.43C1112.6 136.346 1112.66 136.265 1112.72 136.189C1112.84 136.038 1112.94 135.899 1113.02 135.781C1113.19 135.546 1113.31 135.392 1113.38 135.339C1113.5 135.123 1113.63 134.9 1113.77 134.673C1115.2 132.608 1116.37 130.431 1117.43 128.41C1118.46 126.403 1119.45 124.529 1120.2 122.739C1120.36 121.894 1122.63 116.148 1122.79 115.823C1122.87 115.666 1122.95 115.513 1123.03 115.363C1123.03 115.363 1123.38 114.71 1123.94 115.339C1124.16 115.457 1128.83 119.889 1129.11 120.273C1129.11 120.273 1130.79 122.739 1132.14 124.041C1135.78 127.76 1140.06 131.506 1143.51 134.883C1143.74 134.7 1146.78 138.098 1148.84 140.102C1149.16 140.515 1157.04 147.745 1157.4 147.919C1157.4 147.919 1161.88 152.793 1162.45 153.216C1164.3 155.154 1165.32 154.715 1165.06 154.459C1164.87 154.178 1165.42 154.429 1165.2 154.156C1165.2 154.156 1164.62 151.69 1164.24 151.222C1163.85 150.888 1161.83 147.656 1161.41 147.317C1161.41 147.317 1160.16 145.807 1160.44 146.024L1159.98 145.556C1159.89 145.528 1154.2 140.68 1153.98 140.298C1153.96 140.307 1152.97 138.726 1153.05 138.617C1152.69 138.148 1151.62 137.041 1151.64 137.048C1151.65 136.505 1149.78 135.646 1149.14 134.758C1148.87 134.582 1149.07 134.787 1148.73 134.572C1148.04 133.703 1147.58 133.094 1146.8 132.239C1145.09 130.496 1128.91 112.97 1128.91 112.97L1128.91 112.967Z" fill="white"/>
<path d="M1069.57 168.381C1066.33 169.415 1063.41 170.367 1060.48 171.27C1055.52 172.801 1050.56 174.362 1045.56 175.771C1044.31 176.124 1042.87 176.174 1041.59 175.961C1039.64 175.639 1039.18 174.185 1040.39 172.668C1041.03 171.873 1041.74 171.273 1042.88 171.034C1044.8 170.631 1046.62 169.791 1048.52 169.298C1050.81 168.705 1053.11 168.16 1055.44 167.814C1058.8 167.315 1062.19 166.952 1065.57 166.666C1066.56 166.583 1067.62 166.882 1068.59 167.175C1068.95 167.285 1069.18 167.873 1069.57 168.381Z" fill="white"/>
<path d="M1107.54 196.917C1109.24 198.506 1108.88 200.108 1108.96 201.502C1109.04 202.922 1109.28 204.567 1107.33 205.418C1108.85 206.505 1108.99 207.906 1108.88 209.433C1108.66 212.485 1108.52 215.542 1108.33 218.597C1108.21 220.483 1108.15 222.381 1107.87 224.246C1107.76 225.045 1107.21 225.817 1106.74 226.516C1106.34 227.11 1105.76 227.575 1104.92 227.207C1104.1 226.845 1103.74 226.224 1103.77 225.33C1103.86 223.367 1103.83 221.395 1104.01 219.441C1104.38 215.369 1104.71 211.286 1105.32 207.248C1105.82 203.933 1106.71 200.677 1107.54 196.917Z" fill="white"/>
<path d="M1087.6 190.765C1087.59 191.27 1087.66 191.538 1087.57 191.704C1085.16 195.815 1082.76 199.934 1080.29 204.01C1078.95 206.227 1077.62 208.487 1076.01 210.497C1075.01 211.736 1073.53 212.633 1072.14 213.486C1071.7 213.759 1070.72 213.59 1070.25 213.258C1069.97 213.057 1070.01 212.084 1070.2 211.578C1070.61 210.562 1071.1 209.54 1071.76 208.676C1075.29 204.053 1078.85 199.447 1082.48 194.905C1083.46 193.691 1084.71 192.693 1085.89 191.663C1086.32 191.291 1086.92 191.114 1087.6 190.766L1087.6 190.765Z" fill="white"/>
<path d="M284.932 54.8155C282.44 48.6594 282.395 27.6542 284.73 23.5521C284.942 23.7482 285.238 23.8882 285.298 24.0968C285.955 26.3682 286.834 28.5836 286.627 31.0429C286.533 32.1661 286.846 33.3181 286.848 34.4575C286.851 36.2402 286.829 38.0304 286.673 39.8051C286.289 44.1814 285.829 48.551 285.381 52.9221C285.332 53.3953 285.165 53.8559 284.933 54.8155H284.932Z" fill="white"/>
<path d="M319.631 34.0411C319.883 36.1445 318.862 37.4903 318.155 38.7911C315.679 43.3347 312.984 47.7581 310.395 52.2405C309.602 53.6128 308.896 55.0345 308.127 56.42C307.467 57.6066 306.625 58.6288 305.348 59.4292C305.272 59.043 305.134 58.7902 305.209 58.6465C306.22 56.692 307.289 54.7662 308.278 52.8006C308.581 52.1985 308.57 51.4306 308.902 50.8527C311.111 47.0093 312.474 42.7067 315.298 39.1927C316.421 37.7961 317.397 36.2838 318.473 34.8489C318.667 34.5895 319.027 34.4539 319.631 34.0426L319.631 34.0411Z" fill="white"/>
<path d="M316.291 77.7545C317.5 77.2069 318.258 76.8443 319.031 76.5164C322.277 75.1382 325.526 73.7932 328.993 73.0046C330.654 72.6265 332.215 71.8254 333.862 71.3604C334.705 71.1223 335.675 70.661 336.597 71.5763C336.562 73.5264 335.105 74.4152 333.586 75.0063C331.722 75.7322 329.755 76.2231 327.804 76.694C325.424 77.2681 323.019 77.7413 320.615 78.2093C319.349 78.4562 318.064 78.5682 316.291 77.7545Z" fill="white"/>
<path d="M174.079 63.846C174.521 64.0199 174.997 64.0531 175.147 64.2904C177.048 67.2973 179.628 69.5989 182.486 71.6633C182.908 71.9684 183.238 73.225 183.039 73.4026C182.462 73.917 181.517 74.4911 180.852 74.3592C176.609 73.5146 173.054 69.0934 173.147 64.9013C173.155 64.5314 173.774 64.1754 174.078 63.8452L174.079 63.846Z" fill="white"/>
<path d="M187.215 59.3429C186.205 60.5928 185.812 61.5892 185.242 61.7027C181.491 62.4493 177.944 61.7189 174.708 59.6892C174.371 59.4785 174.117 58.7319 174.222 58.3391C174.328 57.944 174.883 57.5497 175.326 57.3972C175.791 57.2365 176.371 57.2822 176.875 57.3743C179.965 57.9403 183.049 58.5447 187.215 59.3436V59.3429Z" fill="white"/>
<path d="M176.071 52.575C176.121 51.9073 175.965 51.1563 176.225 50.9647C178.891 48.9954 181.612 47.0991 184.353 45.2338C184.761 44.956 185.37 44.7975 185.854 44.8557C186.302 44.9088 186.892 45.2331 187.079 45.6075C187.268 45.9841 187.232 46.7815 186.96 47.0306C184.384 49.3897 181.873 51.8985 178.223 52.5588C177.571 52.6767 176.878 52.575 176.071 52.575Z" fill="white"/>
<path d="M165.462 63.661C166.366 63.4922 167.432 64.9743 166.955 65.9272C165.695 68.4441 164.333 70.9108 162.979 73.3797C162.823 73.6635 162.492 73.9022 162.188 74.0401C161.896 74.172 161.494 74.256 161.21 74.1587C160.918 74.0585 160.485 73.6981 160.5 73.477C160.74 69.876 161.856 66.6178 164.49 64.0213C164.714 63.8002 165.133 63.7759 165.462 63.661Z" fill="white"/>
<path d="M156.903 45.0289C157.082 45.051 157.705 44.9515 158.102 45.2036C160.356 46.6319 162.447 48.2717 163.693 50.7067C163.897 51.1047 163.865 51.9994 163.607 52.1748C163.108 52.5138 162.225 52.8101 161.756 52.5883C159.15 51.3538 157.111 49.4 155.47 47.049C154.975 46.3408 155.687 45.1129 156.903 45.0289Z" fill="white"/>
<path d="M161.536 57.1769C162.544 57.3825 163.076 57.4171 163.538 57.6139C163.817 57.7326 164.109 58.0775 164.174 58.3701C164.238 58.6546 164.125 59.155 163.911 59.2987C161.404 60.9923 158.544 61.691 155.583 61.904C155.105 61.9386 154.254 61.1913 154.14 60.6806C154.03 60.1838 154.519 59.1498 154.963 59.0024C157.256 58.2418 159.618 57.6891 161.536 57.1769Z" fill="white"/>
<path d="M167.606 45.9031C167.822 44.1873 167.865 42.7767 168.235 41.4568C168.374 40.96 169.269 40.3785 169.819 40.3793C170.318 40.3793 171.141 41.0418 171.261 41.5452C171.932 44.3731 171.448 47.0778 169.916 49.56C169.765 49.8054 169.271 50.0619 169.04 49.989C168.607 49.8519 167.973 49.5283 167.91 49.1915C167.688 48.0087 167.674 46.7875 167.606 45.9031Z" fill="white"/>
<path d="M1143.33 6.3426C1143.27 6.99926 1143.34 7.56528 1143.16 8.0399C1141.35 12.8503 1139.51 17.6466 1137.66 22.4437C1137.54 22.7717 1137.36 23.0849 1137.17 23.3864C1136.5 24.4852 1135.13 25.0918 1134.56 24.4056C1134.07 23.8116 1133.56 22.6958 1133.8 22.1232C1136.07 16.7387 1138.49 11.4139 1140.93 6.1016C1141.09 5.74342 1141.8 5.4103 1142.22 5.45526C1142.63 5.49948 1142.98 6.04117 1143.33 6.34186L1143.33 6.3426Z" fill="white"/>
<path d="M1120.25 29.1533C1120 29.8667 1119.96 30.2698 1119.75 30.5013C1119.28 31.0046 1118.78 31.5574 1118.18 31.85C1114.16 33.7978 1109.74 34.0691 1105.42 34.7655C1105.18 34.8046 1104.68 34.4597 1104.64 34.2319C1104.55 33.775 1104.53 33.0896 1104.8 32.8324C1105.41 32.2494 1106.15 31.6819 1106.95 31.438C1110.47 30.3568 1114.02 29.3744 1117.58 28.4045C1118.06 28.2733 1118.64 28.3094 1119.12 28.4554C1119.59 28.5954 1119.98 28.9764 1120.25 29.1533Z" fill="white"/>
<path d="M1122.84 46.6562C1123.3 43.025 1124.17 39.1079 1125.7 35.361C1125.85 34.9851 1126.58 34.5437 1126.94 34.6174C1127.55 34.7412 1128.37 35.1303 1128.58 35.6293C1128.9 36.3781 1129.02 37.3848 1128.81 38.1653C1127.87 41.5407 1126.82 44.8904 1125.68 48.2039C1125.53 48.6564 1124.64 49.0109 1124.05 49.0957C1123.76 49.1369 1123.3 48.4869 1123.05 48.0742C1122.88 47.8022 1122.93 47.3939 1122.83 46.6569L1122.84 46.6562Z" fill="white"/>
<path d="M1137.66 28.5453C1137.74 28.5608 1138.48 28.5608 1139.1 28.8423C1141.68 30.0185 1144.25 31.2213 1146.74 32.5663C1147.15 32.7926 1147.47 33.8848 1147.28 34.3602C1147.1 34.8068 1146.08 35.3374 1145.63 35.1945C1142.77 34.2769 1139.95 33.2363 1137.16 32.1042C1136.6 31.8758 1136.2 31.1226 1135.85 30.5352C1135.43 29.824 1136.21 28.6013 1137.66 28.5446L1137.66 28.5453Z" fill="white"/>
<path d="M1116.63 12.9528C1119.96 14.2845 1122.4 16.3945 1124.12 19.3167C1124.39 19.7795 1124.3 20.8018 1123.95 21.1894C1123.59 21.5867 1122.49 21.8638 1122.11 21.6073C1119.49 19.8179 1117.44 17.4713 1116.02 14.6309C1115.87 14.3383 1116.33 13.7458 1116.63 12.9528Z" fill="white"/>
<path d="M1390.87 45.1402C1390.66 45.4851 1390.42 46.1507 1389.96 46.6024C1389.24 47.3225 1388.25 47.2097 1387.55 46.6363C1386.76 45.9951 1385.94 45.2066 1385.55 44.3037C1384.65 42.2158 1383.79 40.066 1383.28 37.8565C1382.57 34.7759 1382.18 31.62 1381.69 28.4922C1381.61 27.9808 1381.58 27.4302 1381.68 26.9276C1381.91 25.7771 1382.7 24.9421 1383.82 24.9466C1384.57 24.9495 1385.64 25.3954 1386.01 25.9872C1386.73 27.1583 1387.19 28.535 1387.52 29.8844C1388.54 33.9696 1389.46 38.0798 1390.4 42.1864C1390.59 43.0413 1390.68 43.9205 1390.87 45.1395L1390.87 45.1402Z" fill="white"/>
<path d="M25.5018 173.134C28.4378 171.169 31.3658 169.191 34.3174 167.249C34.901 166.865 35.5527 166.557 36.211 166.318C37.2534 165.939 38.5138 166.41 38.9564 167.318C39.4581 168.347 39.4322 169.357 38.6683 170.279C38.5552 170.415 38.4474 170.567 38.3055 170.665C33.3827 174.098 28.457 177.528 23.5269 180.951C23.2373 181.152 22.8937 181.461 22.6012 181.434C21.7862 181.361 20.6315 181.393 20.2754 180.903C19.8934 180.378 20.0596 179.215 20.3707 178.497C20.7017 177.732 21.4338 177.108 22.0803 176.52C23.2558 175.449 24.4977 174.451 25.7116 173.422C25.6421 173.327 25.5712 173.231 25.5018 173.134Z" fill="white"/>
<path d="M1363.34 32.6246C1362.56 32.0283 1361.52 31.5847 1361.07 30.8012C1360.52 29.8387 1360.9 28.5917 1361.88 27.9881C1365.93 25.4927 1370.03 23.0827 1374.14 20.6911C1374.73 20.3469 1375.47 20.2099 1376.16 20.0934C1377.54 19.8605 1378.65 20.4833 1379.2 21.6883C1379.75 22.8822 1379.21 23.844 1378.31 24.4513C1374.96 26.7352 1371.59 29.0155 1368.1 31.0842C1366.77 31.8677 1365.11 32.0748 1363.34 32.6238L1363.34 32.6246Z" fill="white"/>
<path d="M1400.45 137.351C1400.4 138.882 1399.04 139.881 1398.13 139.348C1396.48 138.387 1394.68 137.431 1393.46 136.027C1391.28 133.512 1389.46 130.683 1387.55 127.941C1387.16 127.387 1386.87 126.628 1386.89 125.972C1386.91 125.174 1387.07 124.126 1387.59 123.653C1388.42 122.899 1389.58 123.097 1390.5 123.82C1390.91 124.144 1391.29 124.529 1391.61 124.945C1394.4 128.578 1397.19 132.209 1399.93 135.884C1400.31 136.405 1400.39 137.158 1400.45 137.351Z" fill="white"/>
<path d="M317.146 219.513C317.269 220.783 316.171 222.017 315.184 221.789C314.2 221.563 313.077 221.2 312.398 220.517C309.207 217.303 307.777 213.061 306.066 209.012C305.606 207.923 306.2 206.804 307.295 206.428C308.018 206.18 309.086 206.257 309.736 206.637C310.61 207.15 311.428 207.983 311.923 208.871C313.644 211.953 315.228 215.112 316.828 218.261C317.06 218.718 317.089 219.277 317.146 219.513Z" fill="white"/>
<path d="M301.302 238.699C300.383 238.257 299.731 238.005 299.145 237.646C298.235 237.089 298.067 235.619 298.786 234.86C299.028 234.604 299.263 234.278 299.569 234.157C302.429 233.021 304.5 230.84 306.859 228.999C308.745 227.528 311.23 226.784 313.518 225.892C313.952 225.723 314.965 226.222 315.243 226.69C315.511 227.141 315.427 228.219 315.064 228.559C312.101 231.329 309.134 234.112 305.957 236.624C304.643 237.663 302.812 238.052 301.302 238.699Z" fill="white"/>
<path d="M1386.56 116.773C1386.28 117.622 1386.11 118.289 1385.84 118.912C1385.54 119.593 1384.01 119.812 1383.51 119.278C1383.28 119.022 1383.02 118.762 1382.87 118.456C1381.06 114.662 1379.22 110.881 1377.5 107.043C1377.01 105.955 1376.76 104.703 1376.68 103.509C1376.61 102.426 1377.15 101.45 1378.31 101.072C1379.52 100.679 1380.32 101.35 1381 102.216C1381.11 102.352 1381.19 102.51 1381.26 102.669C1382.59 105.72 1383.99 108.741 1385.21 111.836C1385.84 113.446 1386.14 115.185 1386.57 116.771L1386.56 116.773Z" fill="white"/>
<path d="M325.845 246.577C325.8 246.924 325.87 247.358 325.687 247.601C325.289 248.129 324.829 248.805 324.268 248.959C323.706 249.113 322.964 248.766 322.352 248.516C322.071 248.401 321.804 248.023 321.711 247.712C320.416 243.339 319.095 238.972 317.938 234.561C317.747 233.835 318.18 232.846 318.557 232.094C319.252 230.709 321.178 230.634 322.07 231.874C322.274 232.159 322.48 232.45 322.632 232.764C323.694 234.965 325.854 244.285 325.845 246.578V246.577Z" fill="white"/>
<path d="M1402.57 106.193C1402.52 106.376 1402.45 107.094 1402.15 107.708C1400.29 111.592 1397.43 114.762 1394.52 117.866C1393.97 118.455 1393.02 118.801 1392.19 118.975C1390.46 119.337 1388.96 117.576 1389.65 115.989C1390.06 115.036 1390.66 114.116 1391.35 113.339C1393.83 110.562 1396.37 107.843 1398.91 105.128C1399.26 104.751 1399.75 104.487 1400.21 104.227C1401.1 103.725 1402.52 104.614 1402.57 106.193Z" fill="white"/>
<path d="M1370.06 134.254C1369.61 133.773 1368.75 133.163 1368.35 132.332C1367.93 131.485 1368.45 130.565 1369.32 130.156C1372.86 128.511 1376.09 126.454 1378.87 123.682C1379.45 123.106 1380.41 122.775 1381.25 122.65C1381.83 122.564 1382.59 122.898 1383.07 123.287C1383.38 123.537 1383.55 124.292 1383.42 124.711C1382.13 128.89 1375.45 134.009 1371.05 134.253C1370.88 134.262 1370.7 134.254 1370.06 134.254Z" fill="white"/>
<path d="M50.4078 156.557C48.8356 157.927 46.9073 157.245 46.6354 156.088C46.478 155.418 46.3598 154.662 46.509 154.01C47.2929 150.576 48.1211 147.149 49.0439 143.75C49.2633 142.942 49.7495 142.043 50.3952 141.558C50.9996 141.104 51.9911 140.959 52.7868 141.016C53.7724 141.088 54.4011 141.965 54.3117 142.877C53.8292 147.814 52.7048 152.578 50.0398 156.86C49.9512 157.002 49.7761 157.093 50.4078 156.557Z" fill="white"/>
<path d="M331.507 207.17C331.356 207.968 331.366 208.534 331.144 208.988C329.366 212.615 327.568 216.234 325.712 219.822C325.404 220.418 324.867 221.056 324.279 221.307C323.535 221.623 322.439 221.898 321.851 221.565C321.307 221.257 320.796 219.953 321.02 219.38C322.743 214.975 324.273 210.437 327.682 206.924C328.048 206.547 328.411 206.101 328.869 205.897C329.305 205.703 329.995 205.576 330.338 205.792C330.865 206.123 331.191 206.773 331.507 207.17Z" fill="white"/>
<path d="M1391.95 4.5739e-06C1392.46 0.801119 1393.35 1.5617 1393.24 2.13508C1392.49 6.09791 1391.58 10.0313 1390.62 13.9491C1390.46 14.5682 1389.9 15.2381 1389.34 15.5676C1388.63 15.9847 1387.64 16.4158 1386.93 16.2316C1385.87 15.9552 1385.17 14.8505 1385.45 13.7347C1386.31 10.1595 1387.29 6.60865 1388.35 3.08359C1388.59 2.2869 1389.2 1.52853 1389.82 0.943359C1390.29 0.508532 1391.04 0.381768 1391.95 -0.000732422L1391.95 4.5739e-06Z" fill="white"/>
<path d="M1380.28 15.9737C1379.55 16.2729 1378.72 16.9443 1378.1 16.791C1376.94 16.5036 1375.67 15.959 1374.85 15.1262C1373.08 13.3382 1371.13 11.8834 1368.94 10.6666C1368.22 10.2671 1367.69 9.44392 1367.22 8.71724C1366.38 7.41571 1367.41 5.76631 1369.01 5.74346C1371.68 5.70514 1373.85 7.07153 1375.66 8.69734C1377.35 10.2038 1378.56 12.2386 1379.91 14.0951C1380.18 14.4754 1380.12 15.0967 1380.28 15.9737Z" fill="white"/>
<path d="M36.0054 159.924C35.7616 159.969 35.0316 160.331 34.4347 160.178C30.8329 159.252 27.2504 158.247 23.693 157.165C23.0783 156.979 22.5552 156.349 22.0956 155.83C21.2903 154.921 21.8171 153.131 23.0051 152.758C23.6642 152.551 24.4037 152.367 25.0709 152.453C29.1876 152.991 32.9023 154.605 36.3216 156.903C37.2843 157.55 37.2599 159.024 36.0054 159.924Z" fill="white"/>
<path d="M1254.97 110.429C1255.84 110.654 1256.45 110.641 1256.81 110.936C1258.86 112.6 1261.01 114.185 1262.79 116.11C1263.8 117.207 1264.28 118.863 1264.77 120.344C1264.93 120.845 1264.55 121.803 1264.1 122.146C1263.66 122.481 1262.55 122.604 1262.21 122.296C1259.47 119.85 1256.82 117.31 1254.22 114.719C1253.77 114.272 1253.39 113.359 1253.53 112.816C1253.77 111.943 1254.48 111.197 1254.97 110.429H1254.97Z" fill="white"/>
<path d="M1401.16 20.078C1402.53 20.1377 1404.33 20.0316 1406.04 20.3654C1406.96 20.5445 1407.82 21.3921 1408.54 22.104C1409.11 22.67 1408.59 24.2133 1407.83 24.2973C1403.98 24.7174 1400.14 25.0977 1396.28 25.38C1395.66 25.4249 1394.85 25.0542 1394.4 24.6032C1393.84 24.0305 1393.14 23.1122 1393.25 22.4688C1393.37 21.7871 1394.28 20.874 1394.99 20.7273C1396.87 20.333 1398.83 20.2947 1401.16 20.078Z" fill="white"/>
<path d="M1265.13 125.185C1265.39 125.349 1266.17 125.591 1266.49 126.113C1266.81 126.639 1266.89 127.515 1266.69 128.111C1266.37 129.092 1265.91 130.145 1265.2 130.859C1262.89 133.171 1260.02 134.547 1256.78 134.915C1256.07 134.996 1255.09 134.435 1254.56 133.866C1253.72 132.96 1254.14 131.843 1254.81 130.974C1255.22 130.441 1255.82 129.996 1256.43 129.677C1259.21 128.201 1262.02 126.783 1265.13 125.185L1265.13 125.185Z" fill="white"/>
<path d="M49.6018 187.918C47.7481 183.893 46.1847 180.967 45.0787 177.878C44.5918 176.519 44.911 174.81 45.1245 173.297C45.194 172.807 46.0547 172.167 46.625 172.083C47.1954 171.999 47.9254 172.431 48.4529 172.817C48.8393 173.1 49.0934 173.645 49.2648 174.123C49.9719 176.096 50.7536 178.057 51.2552 180.084C51.6261 181.583 51.8167 183.197 51.6764 184.723C51.5988 185.566 50.6753 186.332 49.601 187.918H49.6018Z" fill="white"/>
<path d="M1278.44 108.988C1278.3 109.605 1278.33 110.201 1278.06 110.594C1275.95 113.639 1273.86 116.693 1271.59 119.616C1271.2 120.127 1269.87 120.385 1269.24 120.12C1268.61 119.85 1267.95 118.8 1267.94 118.077C1267.91 117.095 1268.22 115.848 1268.86 115.157C1271.01 112.838 1273.35 110.692 1275.68 108.542C1276.01 108.239 1276.68 108.142 1277.16 108.215C1277.6 108.282 1277.99 108.702 1278.44 108.988Z" fill="white"/>
<path d="M336.333 231.059C334.577 230.637 331.66 229.984 328.774 229.214C327.716 228.932 326.645 228.177 327.066 226.982C327.376 226.104 328.307 225.322 329.148 224.798C329.642 224.491 330.505 224.753 331.201 224.791C334.282 224.961 336.952 226.427 339.686 227.619C340.32 227.895 340.953 228.907 340.999 229.618C341.062 230.613 340.057 230.968 339.13 231.051C338.604 231.098 338.072 231.059 336.333 231.059Z" fill="white"/>
<path d="M1280.75 134.352C1280.25 134.611 1279.58 135.103 1278.83 135.274C1278.41 135.37 1277.79 135.032 1277.41 134.717C1275.37 133.062 1273.32 131.403 1271.38 129.635C1270.58 128.904 1270.26 127.857 1270.87 126.767C1271.48 125.681 1272.78 125.269 1274.09 125.793C1277.41 127.127 1279.28 129.842 1280.74 132.911C1280.87 133.194 1280.75 133.596 1280.75 134.352Z" fill="white"/>
<path d="M68.5805 163.902C65.745 164.58 63.2204 165.321 60.6442 165.742C59.3261 165.957 57.8529 165.797 56.5733 165.405C56.0384 165.241 55.5914 164.05 55.5441 163.299C55.5123 162.791 56.1573 161.883 56.6545 161.756C60.2504 160.835 63.9282 160.678 67.5957 161.21C68.9588 161.408 68.978 162.553 68.5813 163.902H68.5805Z" fill="white"/>
<path d="M451.063 12.627C450.746 11.8959 450.179 11.5148 449.41 11.506C448.14 11.492 446.858 11.4426 445.603 11.5944C444.854 11.6851 444.135 11.6136 443.403 11.604C443.089 11.6003 442.775 11.5856 442.461 11.5568C440.916 11.4131 439.365 11.3099 437.83 11.0947C437.072 10.9886 436.458 10.4764 436.122 9.78583C435.355 8.21013 434.649 6.60496 433.918 5.01157C433.516 4.1375 433.156 3.21478 431.883 3.33786C431.866 2.98557 431.887 2.70404 431.832 2.43798C431.757 2.07612 431.782 1.59412 431.309 1.4961C430.752 1.38113 430.619 1.87418 430.437 2.24858C430.376 2.37387 430.353 2.51832 430.315 2.65392C430.041 3.63781 429.751 4.61802 429.498 5.6078C429.113 7.1098 428.802 8.63243 428.368 10.119C427.955 11.5377 427.697 11.8229 426.278 11.9172C424.495 12.0359 422.719 12.2747 420.938 12.4434C419.084 12.6196 417.497 13.4487 415.978 14.437C415.253 14.9094 414.688 15.5189 414.558 16.4291C414.487 16.9163 414.523 17.3452 415.025 17.6054C415.649 17.9282 416.245 18.3151 416.892 18.5789C417.694 18.9054 418.527 19.167 419.364 19.3926C419.831 19.5186 420.016 19.8016 420.037 20.218C420.056 20.6204 418.116 26.4486 418.102 26.4987C417.654 28.137 417.247 29.7835 416.629 31.3761C416.031 32.9187 415.625 34.5356 415.588 36.1968C415.568 37.0952 415.858 37.9811 416.812 38.3555C417.624 38.6739 418.501 38.7873 419.216 38.1366C420.882 36.6191 422.405 34.9469 423.7 33.1169C424.978 31.3113 426.498 29.7739 428.205 28.4141C428.617 28.0862 429.426 27.8466 429.856 28.0279C430.94 28.4849 431.917 29.199 432.926 29.8262C433.132 29.9545 433.27 30.1984 433.479 30.3141C435.536 31.4432 437.512 32.7211 439.719 33.5709C440.642 33.9261 441.465 33.8944 442.345 33.4198C443.052 33.038 443.328 32.5391 443.143 31.7874C442.979 31.1182 442.787 30.4549 442.588 29.7953C442.446 29.3236 442.321 28.8386 442.107 28.3987C441.097 26.3255 440.059 24.2671 439.034 22.202C438.699 21.5276 438.786 21.3301 439.486 21.1304C439.758 21.053 440.05 21.0191 440.299 20.896C442.226 19.9461 444.181 19.0462 446.05 17.9952C447.397 17.2383 448.635 16.2839 449.905 15.3951C450.218 15.1755 450.489 14.8836 450.742 14.5925C451.247 14.011 451.381 13.3588 451.063 12.6262L451.063 12.627Z" fill="white"/>
<path d="M952.369 187.507C951.369 186.915 950.507 187.086 949.596 187.593C948.691 188.095 947.771 188.573 946.873 189.088C945.435 189.913 944.003 190.746 942.582 191.6C941.397 192.312 940.234 193.06 939.058 193.787C938.626 194.054 938.231 194.285 938.021 194.845C937.95 195.036 937.06 194.828 936.622 195C935.853 195.301 935.121 195.719 934.413 196.153C932.855 197.108 931.265 196.86 929.82 196.076C928.287 195.246 926.884 194.17 925.454 193.16C924.567 192.533 923.77 191.777 922.872 191.169C921.883 190.5 920.757 190.697 920.072 191.547C919.508 192.246 919.604 192.837 920.604 193.834C921.255 194.483 921.691 195.18 921.835 196.103C922.271 198.896 922.744 201.684 923.221 204.471C923.45 205.807 923.02 206.741 921.768 207.371C919.965 208.276 918.223 209.3 916.429 210.221C914.346 211.29 912.969 212.981 912.091 215.08C911.473 216.559 912.364 217.787 913.976 217.825C915.963 217.871 917.912 217.369 919.913 217.444C921.194 217.492 922.484 217.252 923.772 217.176C923.982 217.163 924.203 217.328 924.714 217.525C924.143 217.797 926.774 229.018 927.302 230.436C927.816 231.813 928.453 233.145 929.053 234.488C929.106 234.606 929.294 234.668 929.424 234.747C930.676 235.514 932.673 235.2 933.515 234.054C933.958 233.452 934.443 232.825 934.674 232.132C935.455 229.785 936.123 227.399 936.852 225.034C937.378 223.331 938.292 221.841 939.48 220.522C939.718 220.258 940.033 219.978 940.36 219.897C941.661 219.574 942.97 219.218 944.297 219.082C945.834 218.924 947.396 219.04 948.941 218.936C951.31 218.776 953.672 218.407 956.04 218.377C957.065 218.364 957.867 218.044 958.647 217.581C960.123 216.705 960.362 215.397 959.251 214.063C958.433 213.084 957.5 212.184 956.529 211.353C955.352 210.344 954.081 209.445 952.851 208.498C951.222 207.243 949.584 206 947.967 204.729C946.884 203.879 946.801 203.193 947.607 202.083C947.85 201.749 948.208 201.482 948.391 201.122C949.58 198.783 951.511 196.871 952.317 194.315C953.529 193.15 953.389 191.57 953.616 190.104C953.794 188.962 953.421 188.132 952.37 187.509L952.369 187.507ZM933.292 232.692C933.133 232.665 932.991 232.535 932.842 232.446C932.95 232.353 933.048 232.205 933.169 232.181C933.282 232.16 933.419 232.272 933.608 232.351C933.469 232.507 933.363 232.704 933.292 232.692ZM925.823 216.044C925.731 216.563 925.379 216.612 924.584 216.282C925.004 215.97 925.235 215.774 925.496 215.636C925.53 215.618 925.844 215.924 925.823 216.044ZM955.186 213.522C955.349 214.23 955.435 214.604 955.554 215.123C954.409 214.825 954.744 214.361 955.186 213.522Z" fill="white"/>
<path d="M104.554 6.9447C105.052 7.22845 105.573 7.78488 106.044 7.74655C107.672 7.61389 109.176 8.54251 110.878 8.06641C111.761 7.81952 112.857 8.45554 113.824 8.36268C117.077 8.05167 120.265 8.58525 123.466 8.93385C125.552 9.16158 127.62 9.55293 129.702 9.83888C130.016 9.88163 130.352 9.71359 130.681 9.70254C131.535 9.67453 132.39 9.67159 133.246 9.67527C134.18 9.67896 135.121 9.63547 136.047 9.72907C138.95 10.0209 141.85 10.3504 144.745 10.7122C145.097 10.7564 145.413 11.0829 145.821 11.3225C144.68 12.6446 143.198 12.8724 141.788 13.0772C138.873 13.501 135.944 13.8924 133.006 14.0847C130.284 14.2631 127.543 14.1967 124.81 14.1791C121.685 14.1592 118.56 14.0501 115.435 14.0213C110.029 13.9712 104.622 13.9506 99.2164 13.9285C98.765 13.927 98.3107 13.9948 97.8622 14.0582C96.8064 14.2078 95.7455 14.5505 94.7015 14.5004C91.8711 14.364 89.133 14.9477 86.3699 15.3479C85.9436 15.4098 85.5402 15.6243 84.8612 15.8601C85.4663 16.1881 85.7832 16.4291 86.1408 16.5441C90.078 17.8088 94.0514 18.9688 97.9486 20.3425C99.6974 20.9587 101.31 21.8748 103.222 22.1091C103.983 22.2027 104.602 23.1446 105.38 23.4873C108.001 24.6437 110.715 25.601 113.295 26.8377C115.086 27.6963 116.806 28.7708 118.39 29.9699C119.58 30.8705 120.2 32.2612 119.787 33.8281C119.337 35.5387 117.991 36.5307 116.395 36.7392C113.561 37.1085 110.684 37.1556 107.826 37.3355C103.912 37.5816 99.9937 37.785 96.0839 38.0828C92.969 38.3201 89.8593 38.6421 86.7533 38.9804C84.2376 39.2546 81.722 39.5509 79.2233 39.9422C76.0013 40.4463 72.7793 40.974 69.5876 41.638C65.9364 42.3979 62.3235 43.342 58.6848 44.1637C51.5878 45.7659 44.487 47.3549 37.3803 48.9151C35.2887 49.3743 33.1749 49.7369 31.0641 50.1039C30.5691 50.1901 30.0468 50.1164 29.537 50.1164C29.4764 49.9838 29.4165 49.8504 29.356 49.7177C30.0601 49.2099 30.7117 48.5982 31.4778 48.2128C36.3526 45.7571 41.1652 43.1474 46.1759 40.9998C49.5272 39.5634 53.1518 38.735 56.69 37.7637C60.1359 36.8181 63.6216 36.014 67.1 35.1893C70.5791 34.3639 73.9865 33.2392 77.6252 33.1051C79.19 33.0476 80.7216 32.3571 82.2931 32.1249C84.2362 31.8382 86.2088 31.7557 88.163 31.5346C89.931 31.3348 91.6886 31.0496 93.4551 30.8381C94.1127 30.7592 94.8537 30.5853 95.4322 30.7954C96.7813 31.2862 98.0802 30.9708 99.3975 30.8366C101.08 30.6656 102.759 30.4563 104.608 30.2448C103.468 28.7458 101.805 28.4694 100.413 27.843C98.1112 26.8082 95.6753 26.0734 93.3096 25.1765C91.6894 24.5626 90.1024 23.8595 88.4814 23.2485C86.296 22.4246 84.0921 21.647 81.8934 20.857C81.3895 20.6757 80.8834 20.4199 80.364 20.3787C77.6533 20.1642 75.2965 18.8538 72.9027 17.8132C70.8273 16.9118 70.5591 13.9779 72.7948 12.6196C74.2931 11.7094 76.0848 11.1868 77.8129 10.766C80.4017 10.1352 83.0393 9.68043 85.6746 9.26919C88.9646 8.7555 92.2812 8.44449 95.5955 8.10768C97.8275 7.88069 100.032 7.8232 102.258 7.79372C102.847 7.78635 103.7 7.99566 103.751 6.9447C104.02 6.9447 104.288 6.9447 104.557 6.9447H104.554Z" fill="white"/>
<path d="M506.25 209.026C504.327 207.989 502.415 206.93 500.478 205.92C497.726 204.486 494.98 203.039 492.186 201.691C490.264 200.763 488.199 200.118 486.318 199.121C483.928 197.855 481.63 196.412 479.456 194.778C478.491 194.052 478.115 193.13 478.16 192.009C478.235 190.158 479.455 188.538 481.318 188.136C483.927 187.574 486.578 187.214 489.209 186.752C490.714 186.487 492.207 186.147 493.716 185.915C498.136 185.234 502.552 184.49 506.993 183.981C508.956 183.755 510.982 183.991 512.973 184.117C513.514 184.151 514.02 184.581 514.564 184.764C515.047 184.927 515.548 185.135 515.335 185.695C515.197 186.058 514.754 186.483 514.385 186.554C512.486 186.921 510.562 187.156 508.656 187.486C506.227 187.905 503.803 188.35 501.384 188.821C496.614 189.752 491.848 190.706 487.082 191.656C486.386 191.795 485.696 191.961 484.618 192.199C485.242 192.828 485.524 193.296 485.938 193.501C489.873 195.46 493.856 197.323 497.772 199.317C501.068 200.995 504.339 202.735 507.531 204.6C508.823 205.354 509.981 206.37 510.537 207.94C511.005 209.261 511.022 210.176 510.163 211.522C509.152 213.107 507.969 213.791 506.311 214.269C505.177 214.596 504.211 215.482 503.081 215.842C500.68 216.608 498.212 217.166 495.788 217.865C494.324 218.287 492.903 218.855 491.44 219.282C489.973 219.71 488.472 220.023 486.996 220.422C483.993 221.235 480.98 222.018 478.004 222.917C475.706 223.61 473.463 224.483 471.182 225.235C469.48 225.797 467.744 226.258 466.045 226.828C463.28 227.757 460.403 228.281 457.693 229.451C455.448 230.421 452.995 230.905 450.658 231.672C448.126 232.503 445.62 233.41 443.104 234.288C441.723 234.77 440.344 235.255 438.967 235.747C436.156 236.749 433.375 237.84 430.532 238.744C425.764 240.259 420.961 241.664 416.164 243.087C415.699 243.225 415.176 243.166 414.529 242.846C415.645 242.079 416.713 241.227 417.888 240.562C420.09 239.317 422.399 238.257 424.58 236.978C427.994 234.975 431.717 233.606 435.398 232.348C438.107 231.423 440.515 229.856 443.346 229.202C446.065 228.574 448.647 227.373 451.317 226.503C454.227 225.555 457.178 224.732 460.091 223.792C463.014 222.85 465.896 221.781 468.825 220.858C471.682 219.958 474.583 219.194 477.451 218.328C479.039 217.848 480.58 217.209 482.178 216.77C484.624 216.099 487.122 215.611 489.561 214.915C493.475 213.799 497.367 212.6 501.253 211.389C502.951 210.86 504.613 210.214 506.291 209.621C506.278 209.422 506.264 209.225 506.25 209.026Z" fill="white"/>
<path d="M1135.69 246.431C1136.78 245.983 1137.85 245.458 1138.98 245.104C1142.03 244.143 1145.03 242.972 1148.24 242.542C1151.07 242.163 1153.86 241.54 1156.69 241.117C1157.58 240.983 1158.53 241.184 1159.45 241.164C1161.31 241.123 1163.17 241.08 1165.03 240.949C1166.16 240.869 1167.27 240.621 1168.39 240.453C1169.88 240.23 1171.33 240.149 1172.57 241.568C1173.04 240.504 1173.89 240.369 1174.93 240.435C1176.92 240.563 1178.93 240.605 1180.93 240.58C1182.26 240.563 1183.59 240.369 1185.22 240.227C1184.73 239.733 1184.44 239.311 1184.04 239.062C1181.06 237.203 1178.17 235.177 1175.04 233.595C1171.61 231.854 1168.03 230.295 1164.36 229.124C1162.56 228.549 1160.73 228.049 1158.99 227.298C1157.66 226.724 1156.32 226.138 1155.05 225.445C1153.86 224.797 1153.41 222.646 1154.16 221.524C1154.29 221.323 1154.56 221.06 1154.75 221.074C1155.57 221.133 1156.18 221.062 1156.26 220.009C1156.27 219.816 1156.88 219.582 1157.25 219.51C1164.1 218.171 1171 217.686 1177.98 218.114C1181.11 218.305 1184.28 218.044 1187.4 218.291C1192.86 218.723 1198.36 218.698 1203.75 219.859C1204.63 220.049 1205.45 220.244 1205.98 221.434C1202.45 221.69 1199.03 221.618 1195.62 221.726C1192.24 221.833 1188.86 221.972 1185.47 222.105C1182 222.241 1178.52 222.329 1175.06 222.544C1171.67 222.753 1168.3 223.097 1164.89 223.385C1167.71 224.626 1170.37 225.997 1173.18 226.986C1176.52 228.165 1179.7 229.654 1182.73 231.421C1186.14 233.409 1189.17 235.945 1191.67 239.039C1192.1 239.578 1192.24 240.356 1192.51 241.026C1193.49 243.455 1192.17 245.636 1189 245.446C1187.43 245.352 1185.83 245.557 1184.25 245.589C1182.17 245.631 1180.1 245.616 1178.02 245.663C1177.18 245.683 1176.34 245.862 1175.49 245.87C1172.16 245.902 1168.84 245.832 1165.51 245.924C1163.32 245.985 1161.13 246.26 1158.93 246.437C1156.8 246.608 1154.67 246.98 1152.55 246.89C1150.01 246.781 1147.56 247.504 1145.04 247.415C1142.57 247.327 1140.1 247.387 1137.63 247.331C1137 247.317 1136.37 247.111 1135.74 246.993C1135.72 246.805 1135.7 246.617 1135.68 246.429L1135.69 246.431Z" fill="white"/>
<path d="M673.129 242.407C672.823 242.452 672.307 242.629 671.816 242.576C671.034 242.492 670.624 241.851 670.624 241.153C670.624 240.373 670.697 239.502 671.045 238.83C671.85 237.276 672.715 235.72 673.785 234.344C675.277 232.425 676.972 230.663 678.595 228.849C678.861 228.552 679.175 228.268 679.524 228.084C680.321 227.662 681.202 227.726 681.746 228.4C682.109 228.85 682.362 229.703 682.186 230.207C681.837 231.206 681.24 232.148 680.599 233.004C678.658 235.595 676.654 238.139 674.659 240.689C674.243 241.22 673.762 241.699 673.129 242.406L673.129 242.407Z" fill="white"/>
<path d="M667.226 219.919C667.202 219.163 666.958 218.323 667.209 217.677C667.517 216.884 668.445 216.505 669.28 216.795C672.732 217.996 676.16 219.27 679.58 220.559C680.073 220.744 680.514 221.119 680.919 221.475C681.728 222.184 681.895 223.148 681.445 224.062C680.999 224.969 680.163 225.113 679.367 224.875C676.375 223.983 673.381 223.082 670.452 222.005C669.343 221.597 668.411 220.704 667.227 219.918L667.226 219.919Z" fill="white"/>
<path d="M700.564 221.133C700.334 221.825 700.312 222.725 699.918 222.939C697.194 224.419 694.404 225.783 691.601 227.111C691.158 227.321 690.486 227.311 690.017 227.137C689.424 226.917 688.687 226.537 688.452 226.024C688.099 225.253 688.422 224.305 689.219 223.925C691.772 222.707 694.365 221.567 696.978 220.484C697.569 220.24 698.32 220.238 698.972 220.326C699.455 220.39 699.897 220.779 700.564 221.132L700.564 221.133Z" fill="white"/>
<path d="M685.378 221.934C684.844 221.643 684.042 221.476 683.831 221.03C683.438 220.197 683.146 219.176 683.243 218.28C683.451 216.358 683.374 214.492 683.036 212.596C682.926 211.974 683.156 211.254 683.362 210.622C683.73 209.49 685.216 209.306 686.004 210.245C687.324 211.821 687.561 213.775 687.473 215.647C687.392 217.381 686.769 219.094 686.315 220.797C686.222 221.146 685.822 221.412 685.378 221.934Z" fill="white"/>
<path d="M693.066 236.374C693.694 237.218 694.631 238.239 695.265 239.423C695.604 240.058 695.515 240.981 695.441 241.758C695.383 242.375 694.21 242.814 693.787 242.396C691.671 240.309 689.576 238.2 687.536 236.039C687.21 235.693 687.036 235.028 687.088 234.543C687.154 233.926 687.365 233.068 687.802 232.82C688.264 232.558 689.252 232.659 689.681 233.007C690.832 233.941 691.807 235.091 693.066 236.374Z" fill="white"/>
</g>
<defs>
<clipPath id="clip0_650_541">
<rect width="1528" height="257" fill="white" transform="translate(-63)"/>
</clipPath>
</defs>
</svg>
