<svg width="430" height="339" viewBox="0 0 430 339" fill="none" xmlns="http://www.w3.org/2000/svg">
<path d="M99.5034 377.958C89.4506 377.958 81.2708 369.778 81.2708 359.727C81.2708 349.676 89.4506 341.494 99.5034 341.494C109.556 341.494 117.736 349.674 117.736 359.727C117.736 369.78 109.556 377.958 99.5034 377.958ZM99.5034 348.466C93.2948 348.466 88.2429 353.516 88.2429 359.727C88.2429 365.937 93.2948 370.985 99.5034 370.985C105.712 370.985 110.764 365.935 110.764 359.727C110.764 353.518 105.712 348.466 99.5034 348.466Z" fill="white"/>
<path d="M142.581 311.982L117.735 336.837L122.668 341.768L147.514 316.912L142.581 311.982Z" fill="white"/>
<path d="M76.3387 377.954L51.4941 402.808L56.4265 407.739L81.271 382.885L76.3387 377.954Z" fill="white"/>
<path d="M56.4223 311.984L51.4907 316.915L76.3392 341.765L81.2707 336.834L56.4223 311.984Z" fill="white"/>
<path d="M122.664 377.956L117.733 382.888L142.582 407.737L147.514 402.805L122.664 377.956Z" fill="white"/>
<path d="M41.7773 277.358L36.8484 272.429L26.8887 282.389L16.9289 272.429L12 277.358L21.9579 287.318L12 297.278L16.9289 302.206L26.8887 292.249L36.8484 302.206L41.7773 297.278L31.8175 287.318L41.7773 277.358Z" fill="white"/>
<path d="M336 36C326.075 36 318 27.9241 318 18.0009C318 8.07774 326.075 0 336 0C345.925 0 354 8.07587 354 18.0009C354 27.926 345.925 36 336 36ZM336 6.88352C329.871 6.88352 324.883 11.8694 324.883 18.0009C324.883 24.1325 329.871 29.1165 336 29.1165C342.129 29.1165 347.117 24.1306 347.117 18.0009C347.117 11.8712 342.129 6.88352 336 6.88352Z" fill="white"/>
<path d="M398.973 34H392.029V48.0271H378V54.9729H392.029V69H398.973V54.9729H413V48.0271H398.973V34Z" fill="white"/>
</svg>
