<svg width="435" height="339" viewBox="0 0 435 339" fill="none" xmlns="http://www.w3.org/2000/svg">
<path d="M343.013 297.976C332.96 297.976 324.78 289.796 324.78 279.745C324.78 269.694 332.96 261.512 343.013 261.512C353.065 261.512 361.245 269.692 361.245 279.745C361.245 289.798 353.065 297.976 343.013 297.976ZM343.013 268.485C336.804 268.485 331.752 273.535 331.752 279.745C331.752 285.956 336.804 291.004 343.013 291.004C349.221 291.004 354.273 285.954 354.273 279.745C354.273 273.536 349.221 268.485 343.013 268.485Z" fill="white"/>
<path d="M386.091 232L361.245 256.855L366.177 261.786L391.023 236.93L386.091 232Z" fill="white"/>
<path d="M319.848 297.973L295.003 322.827L299.936 327.757L324.78 302.903L319.848 297.973Z" fill="white"/>
<path d="M299.932 232.002L295 236.934L319.848 261.784L324.78 256.853L299.932 232.002Z" fill="white"/>
<path d="M366.173 297.975L361.242 302.906L386.092 327.755L391.023 322.824L366.173 297.975Z" fill="white"/>
<path d="M260.777 277.929L255.848 273L245.889 282.96L235.929 273L231 277.929L240.958 287.889L231 297.848L235.929 302.777L245.889 292.819L255.848 302.777L260.777 297.848L250.818 287.889L260.777 277.929Z" fill="white"/>
<path d="M420.973 179H414.029V193.027H400V199.973H414.029V214H420.973V199.973H435V193.027H420.973V179Z" fill="white"/>
</svg>
