<svg width="430" height="339" viewBox="0 0 430 339" fill="none" xmlns="http://www.w3.org/2000/svg">
<path d="M154.013 288.976C143.96 288.976 135.78 280.796 135.78 270.745C135.78 260.694 143.96 252.512 154.013 252.512C164.065 252.512 172.245 260.692 172.245 270.745C172.245 280.798 164.065 288.976 154.013 288.976ZM154.013 259.485C147.804 259.485 142.752 264.535 142.752 270.745C142.752 276.956 147.804 282.004 154.013 282.004C160.221 282.004 165.273 276.954 165.273 270.745C165.273 264.536 160.221 259.485 154.013 259.485Z" fill="white"/>
<path d="M197.091 223L172.245 247.855L177.177 252.786L202.023 227.93L197.091 223Z" fill="white"/>
<path d="M130.848 288.973L106.003 313.827L110.936 318.757L135.78 293.903L130.848 288.973Z" fill="white"/>
<path d="M110.932 223.002L106 227.934L130.848 252.784L135.78 247.853L110.932 223.002Z" fill="white"/>
<path d="M177.173 288.975L172.242 293.906L197.092 318.755L202.023 313.824L177.173 288.975Z" fill="white"/>
<path d="M263.233 253.463C253.18 253.463 245 245.284 245 235.233C245 225.182 253.18 217 263.233 217C273.285 217 281.465 225.18 281.465 235.233C281.465 245.285 273.285 253.463 263.233 253.463ZM263.233 223.972C257.024 223.972 251.972 229.022 251.972 235.233C251.972 241.443 257.024 246.491 263.233 246.491C269.441 246.491 274.493 241.441 274.493 235.233C274.493 229.024 269.441 223.972 263.233 223.972Z" fill="white"/>
<path d="M71.7773 268.929L66.8484 264L56.8887 273.96L46.9289 264L42 268.929L51.9579 278.889L42 288.848L46.9289 293.777L56.8887 283.819L66.8484 293.777L71.7773 288.848L61.8175 278.889L71.7773 268.929Z" fill="white"/>
<path d="M75.9729 167H69.029V181.027H55V187.973H69.029V202H75.9729V187.973H90V181.027H75.9729V167Z" fill="white"/>
</svg>
